<svg width="24" height="24" viewBox="0 0 24 24" fill="none" xmlns="http://www.w3.org/2000/svg">
<path d="M12 4.125C12.5391 4.14844 12.9492 4.38281 13.2305 4.82812L20.8242 17.7656C21.0586 18.2344 21.0586 18.7031 20.8242 19.1719C20.543 19.6172 20.1328 19.8516 19.5938 19.875H4.40625C3.86719 19.8516 3.45703 19.6172 3.17578 19.1719C2.94141 18.7031 2.94141 18.2344 3.17578 17.7656L10.8047 4.82812C11.0859 4.38281 11.4844 4.14844 12 4.125ZM12 8.625C11.4844 8.67188 11.2031 8.95312 11.1562 9.46875V13.4062C11.2031 13.9219 11.4844 14.2031 12 14.25C12.5156 14.2031 12.7969 13.9219 12.8438 13.4062V9.46875C12.7969 8.95312 12.5156 8.67188 12 8.625ZM13.125 16.5C13.125 16.1719 13.0195 15.9023 12.8086 15.6914C12.5977 15.4805 12.3281 15.375 12 15.375C11.6719 15.375 11.4023 15.4805 11.1914 15.6914C10.9805 15.9023 10.875 16.1719 10.875 16.5C10.875 16.8281 10.9805 17.0977 11.1914 17.3086C11.4023 17.5195 11.6719 17.625 12 17.625C12.3281 17.625 12.5977 17.5195 12.8086 17.3086C13.0195 17.0977 13.125 16.8281 13.125 16.5Z" fill="white"/>
</svg>
