<svg width="24" height="24" viewBox="0 0 24 24" fill="none" xmlns="http://www.w3.org/2000/svg">
<path d="M12 21C10.3594 20.9766 8.85938 20.5781 7.5 19.8047C6.14062 19.0078 5.03906 17.9062 4.19531 16.5C3.39844 15.0703 3 13.5703 3 12C3 10.4297 3.39844 8.92969 4.19531 7.5C5.03906 6.09375 6.14062 4.99219 7.5 4.19531C8.85938 3.42188 10.3594 3.02344 12 3C13.6406 3.02344 15.1406 3.42188 16.5 4.19531C17.8594 4.99219 18.9609 6.09375 19.8047 7.5C20.6016 8.92969 21 10.4297 21 12C21 13.5703 20.6016 15.0703 19.8047 16.5C18.9609 17.9062 17.8594 19.0078 16.5 19.8047C15.1406 20.5781 13.6406 20.9766 12 21ZM12 7.5C11.4844 7.54688 11.2031 7.82812 11.1562 8.34375V12.2812C11.2031 12.7969 11.4844 13.0781 12 13.125C12.5156 13.0781 12.7969 12.7969 12.8438 12.2812V8.34375C12.7969 7.82812 12.5156 7.54688 12 7.5ZM10.875 15.375C10.875 15.7031 10.9805 15.9727 11.1914 16.1836C11.4023 16.3945 11.6719 16.5 12 16.5C12.3281 16.5 12.5977 16.3945 12.8086 16.1836C13.0195 15.9727 13.125 15.7031 13.125 15.375C13.125 15.0469 13.0195 14.7773 12.8086 14.5664C12.5977 14.3555 12.3281 14.25 12 14.25C11.6719 14.25 11.4023 14.3555 11.1914 14.5664C10.9805 14.7773 10.875 15.0469 10.875 15.375Z" fill="white"/>
</svg>
