<svg width="24" height="24" viewBox="0 0 24 24" fill="none" xmlns="http://www.w3.org/2000/svg">
<path d="M19.5586 12.8086L13.9336 18.4336C13.6992 18.6445 13.4297 18.75 13.125 18.75C12.8203 18.75 12.5508 18.6445 12.3164 18.4336C12.1055 18.1992 12 17.9297 12 17.625C12 17.3203 12.1055 17.0508 12.3164 16.8164L16.043 13.125H5.25C4.92188 13.125 4.65234 13.0195 4.44141 12.8086C4.23047 12.5977 4.125 12.3281 4.125 12C4.125 11.6719 4.23047 11.4023 4.44141 11.1914C4.65234 10.9805 4.92188 10.875 5.25 10.875H16.043L12.3164 7.18359C12.1055 6.94922 12 6.67969 12 6.375C12 6.07031 12.1055 5.80078 12.3164 5.56641C12.5508 5.35547 12.8203 5.25 13.125 5.25C13.4297 5.25 13.6992 5.35547 13.9336 5.56641L19.5586 11.1914C19.7695 11.4258 19.875 11.6953 19.875 12C19.875 12.3047 19.7695 12.5742 19.5586 12.8086Z" fill="white"/>
</svg>
