<svg width="24" height="24" viewBox="0 0 24 24" fill="none" xmlns="http://www.w3.org/2000/svg">
<path d="M11.1914 19.5586L5.56641 13.9336C5.35547 13.6992 5.25 13.4297 5.25 13.125C5.25 12.8203 5.35547 12.5508 5.56641 12.3164C5.80078 12.1055 6.07031 12 6.375 12C6.67969 12 6.94922 12.1055 7.18359 12.3164L10.875 16.043V5.25C10.875 4.92188 10.9805 4.65234 11.1914 4.44141C11.4023 4.23047 11.6719 4.125 12 4.125C12.3281 4.125 12.5977 4.23047 12.8086 4.44141C13.0195 4.65234 13.125 4.92188 13.125 5.25V16.043L16.8164 12.3164C17.0508 12.1055 17.3203 12 17.625 12C17.9297 12 18.1992 12.1055 18.4336 12.3164C18.6445 12.5508 18.75 12.8203 18.75 13.125C18.75 13.4297 18.6445 13.6992 18.4336 13.9336L12.8086 19.5586C12.5742 19.7695 12.3047 19.875 12 19.875C11.6953 19.875 11.4258 19.7695 11.1914 19.5586Z" fill="white"/>
</svg>
