<svg width="24" height="24" viewBox="0 0 24 24" fill="none" xmlns="http://www.w3.org/2000/svg">
<path d="M12.8086 4.44141L18.4336 10.0664C18.6445 10.3008 18.75 10.5703 18.75 10.875C18.75 11.1797 18.6445 11.4492 18.4336 11.6836C18.1992 11.8945 17.9297 12 17.625 12C17.3203 12 17.0508 11.8945 16.8164 11.6836L13.125 7.95703V18.75C13.125 19.0781 13.0195 19.3477 12.8086 19.5586C12.5977 19.7695 12.3281 19.875 12 19.875C11.6719 19.875 11.4023 19.7695 11.1914 19.5586C10.9805 19.3477 10.875 19.0781 10.875 18.75V7.95703L7.18359 11.6836C6.94922 11.8945 6.67969 12 6.375 12C6.07031 12 5.80078 11.8945 5.56641 11.6836C5.35547 11.4492 5.25 11.1797 5.25 10.875C5.25 10.5703 5.35547 10.3008 5.56641 10.0664L11.1914 4.44141C11.4258 4.23047 11.6953 4.125 12 4.125C12.3047 4.125 12.5742 4.23047 12.8086 4.44141Z" fill="white"/>
</svg>
