<svg width="24" height="24" viewBox="0 0 24 24" fill="none" xmlns="http://www.w3.org/2000/svg">
<path d="M7.81641 11.1914L14.5664 4.44141C14.8008 4.23047 15.0703 4.125 15.375 4.125C15.6797 4.125 15.9492 4.23047 16.1836 4.44141C16.3945 4.67578 16.5 4.94531 16.5 5.25C16.5 5.55469 16.3945 5.82422 16.1836 6.05859L10.207 12L16.1836 17.9414C16.3945 18.1758 16.5 18.4453 16.5 18.75C16.5 19.0547 16.3945 19.3242 16.1836 19.5586C15.9492 19.7695 15.6797 19.875 15.375 19.875C15.0703 19.875 14.8008 19.7695 14.5664 19.5586L7.81641 12.8086C7.60547 12.5742 7.5 12.3047 7.5 12C7.5 11.6953 7.60547 11.4258 7.81641 11.1914Z" fill="white"/>
</svg>
