<svg width="24" height="24" viewBox="0 0 24 24" fill="none" xmlns="http://www.w3.org/2000/svg">
<path d="M16.1836 11.1914C16.3945 11.4258 16.5 11.6953 16.5 12C16.5 12.3047 16.3945 12.5742 16.1836 12.8086L9.43359 19.5586C9.19922 19.7695 8.92969 19.875 8.625 19.875C8.32031 19.875 8.05078 19.7695 7.81641 19.5586C7.60547 19.3242 7.5 19.0547 7.5 18.75C7.5 18.4453 7.60547 18.1758 7.81641 17.9414L13.793 12L7.81641 6.05859C7.60547 5.82422 7.5 5.55469 7.5 5.25C7.5 4.94531 7.60547 4.67578 7.81641 4.44141C8.05078 4.23047 8.32031 4.125 8.625 4.125C8.92969 4.125 9.19922 4.23047 9.43359 4.44141L16.1836 11.1914Z" fill="white"/>
</svg>
