<svg width="24" height="24" viewBox="0 0 24 24" fill="none" xmlns="http://www.w3.org/2000/svg">
<path d="M12 21C10.3594 20.9766 8.85938 20.5781 7.5 19.8047C6.14062 19.0078 5.03906 17.9062 4.19531 16.5C3.39844 15.0703 3 13.5703 3 12C3 10.4297 3.39844 8.92969 4.19531 7.5C5.03906 6.09375 6.14062 4.99219 7.5 4.19531C8.85938 3.42188 10.3594 3.02344 12 3C13.6406 3.02344 15.1406 3.42188 16.5 4.19531C17.8594 4.99219 18.9609 6.09375 19.8047 7.5C20.6016 8.92969 21 10.4297 21 12C21 13.5703 20.6016 15.0703 19.8047 16.5C18.9609 17.9062 17.8594 19.0078 16.5 19.8047C15.1406 20.5781 13.6406 20.9766 12 21ZM15.2344 16.8867C15.4922 17.1211 15.7617 17.1328 16.043 16.9219C16.2773 16.6641 16.2891 16.4062 16.0781 16.1484C15.6797 15.6562 15.1406 15.2227 14.4609 14.8477C13.7812 14.4727 12.9609 14.2734 12 14.25C11.0391 14.2734 10.2188 14.4727 9.53906 14.8477C8.85938 15.2227 8.32031 15.6562 7.92188 16.1484C7.71094 16.4062 7.73438 16.6641 7.99219 16.9219C8.25 17.1328 8.50781 17.1211 8.76562 16.8867C9.09375 16.4883 9.51562 16.1367 10.0312 15.832C10.5703 15.5508 11.2266 15.3984 12 15.375C12.7734 15.3984 13.4297 15.5508 13.9688 15.832C14.4844 16.1367 14.9062 16.4883 15.2344 16.8867ZM8.0625 10.3125C8.08594 10.6406 8.20312 10.9102 8.41406 11.1211C8.625 11.332 8.88281 11.4375 9.1875 11.4375C9.51562 11.4375 9.78516 11.332 9.99609 11.1211C10.207 10.9102 10.3125 10.6406 10.3125 10.3125C10.3125 9.98438 10.207 9.71484 9.99609 9.50391C9.78516 9.29297 9.51562 9.1875 9.1875 9.1875C8.88281 9.1875 8.625 9.29297 8.41406 9.50391C8.20312 9.71484 8.08594 9.98438 8.0625 10.3125ZM14.8125 9.1875C14.5078 9.1875 14.25 9.29297 14.0391 9.50391C13.8281 9.71484 13.7109 9.98438 13.6875 10.3125C13.7109 10.6406 13.8281 10.9102 14.0391 11.1211C14.25 11.332 14.5078 11.4375 14.8125 11.4375C15.1406 11.4375 15.4102 11.332 15.6211 11.1211C15.832 10.9102 15.9375 10.6406 15.9375 10.3125C15.9375 9.98438 15.832 9.71484 15.6211 9.50391C15.4102 9.29297 15.1406 9.1875 14.8125 9.1875Z" fill="white"/>
</svg>
