<svg width="27" height="18" viewBox="0 0 27 18" fill="none" xmlns="http://www.w3.org/2000/svg">
<path d="M7.83122 0.107999C8.5602 0.0944926 9.28814 0.169075 9.99916 0.33012C10.5978 0.460551 11.1662 0.703262 11.6741 1.04535C12.1431 1.38552 12.5143 1.84284 12.7503 2.37141C13.0214 3.02138 13.1523 3.7211 13.1342 4.42492C13.165 5.19773 12.9672 5.9625 12.5655 6.62392C12.1429 7.24861 11.5588 7.74751 10.875 8.0677C11.8029 8.31734 12.6111 8.88915 13.1542 9.6803C13.6757 10.5186 13.9377 11.4917 13.9077 12.4779C13.9249 13.2642 13.762 14.044 13.4314 14.758C13.1258 15.3808 12.6783 15.9235 12.1248 16.3428C11.5549 16.7575 10.9137 17.0643 10.2329 17.248C9.52684 17.4429 8.79747 17.5408 8.06493 17.5389H0.0219727V0.107999H7.83122ZM7.36714 7.15812C7.9399 7.18168 8.50373 7.01057 8.96638 6.67278C9.18795 6.47594 9.36031 6.2301 9.46969 5.95492C9.57906 5.67974 9.62241 5.38284 9.59628 5.08795C9.61111 4.74353 9.54239 4.40064 9.39596 4.08841C9.27175 3.83981 9.07861 3.63204 8.83951 3.48979C8.59733 3.33321 8.32525 3.22846 8.04044 3.18215C7.73143 3.12241 7.41698 3.09524 7.10227 3.10108H3.66562V7.17367H7.36714V7.15812ZM7.56746 14.5792C7.91385 14.5839 8.25952 14.5466 8.5969 14.4681C8.90521 14.4002 9.19762 14.2739 9.45828 14.0961C9.71365 13.9184 9.91997 13.6792 10.0581 13.4008C10.2184 13.0458 10.292 12.658 10.2729 12.2691C10.3077 11.9147 10.2606 11.5571 10.1354 11.2237C10.0102 10.8903 9.8102 10.5899 9.55066 10.3456C9.00055 9.94121 8.32639 9.74092 7.64425 9.77914H3.66562V14.5792H7.56746Z" fill="white"/>
<path d="M19.0963 14.5146C19.3823 14.7792 19.7192 14.9829 20.0865 15.1135C20.4538 15.2441 20.8439 15.2988 21.2331 15.2743C21.85 15.2899 22.455 15.1025 22.9548 14.7412C23.3613 14.4774 23.6692 14.087 23.8306 13.6306H26.7364C26.4268 14.9298 25.6707 16.0797 24.5996 16.8802C23.5721 17.5608 22.3578 17.9055 21.1251 17.8665C20.2454 17.878 19.3723 17.7129 18.5577 17.3811C17.8208 17.0744 17.1599 16.6109 16.6212 16.0228C16.0846 15.4067 15.6723 14.6928 15.407 13.9205C15.1093 13.0572 14.9636 12.149 14.9764 11.2361C14.9709 10.3386 15.1216 9.44687 15.4215 8.60068C15.8245 7.41024 16.595 6.3778 17.6225 5.65151C18.65 4.92523 19.8817 4.54244 21.1407 4.55808C22.0703 4.53869 22.9895 4.75578 23.8117 5.1889C24.5549 5.59561 25.1961 6.16519 25.6869 6.85481C26.1891 7.57843 26.549 8.39059 26.7475 9.24816C26.9653 10.169 27.043 11.1174 26.9779 12.0613H18.3229C18.2527 12.9482 18.53 13.8276 19.0963 14.5146ZM22.8936 7.88545C22.6514 7.64369 22.36 7.45655 22.0393 7.33662C21.7185 7.21669 21.3756 7.16677 21.0339 7.19021C20.5805 7.17295 20.1304 7.2732 19.7273 7.48119C19.4078 7.65672 19.1258 7.89289 18.8971 8.17643C18.6945 8.44226 18.5435 8.74362 18.452 9.06491C18.3695 9.33287 18.318 9.60935 18.2984 9.88898H23.6592C23.6125 9.16004 23.3464 8.46213 22.8958 7.88656L22.8936 7.88545Z" fill="white"/>
<path d="M24.3254 1.27197H17.6079V2.98564H24.3254V1.27197Z" fill="white"/>
</svg>
