<svg width="24" height="24" viewBox="0 0 24 24" fill="none" xmlns="http://www.w3.org/2000/svg">
<path d="M5.25 4.6875C5.27344 4.21875 5.4375 3.82031 5.74219 3.49219C6.07031 3.1875 6.46875 3.02344 6.9375 3V4.6875V18.5039L11.5078 15.2695C11.8359 15.0586 12.1641 15.0586 12.4922 15.2695L17.0625 18.5039V4.6875H6.9375V3H17.0625C17.5312 3.02344 17.9297 3.1875 18.2578 3.49219C18.5625 3.82031 18.7266 4.21875 18.75 4.6875V20.1562C18.75 20.4844 18.5977 20.7305 18.293 20.8945C17.9883 21.0352 17.6953 21.0234 17.4141 20.8594L12 16.9922L6.58594 20.8594C6.30469 21.0234 6.01172 21.0352 5.70703 20.8945C5.42578 20.7305 5.27344 20.4844 5.25 20.1562V4.6875Z" fill="white"/>
</svg>
