<svg width="24" height="24" viewBox="0 0 24 24" fill="none" xmlns="http://www.w3.org/2000/svg">
<path d="M6.375 4.125H17.625C18.2578 4.14844 18.7852 4.37109 19.207 4.79297C19.6289 5.21484 19.8516 5.74219 19.875 6.375V17.625C19.8516 18.2578 19.6289 18.7852 19.207 19.207C18.7852 19.6289 18.2578 19.8516 17.625 19.875H6.375C5.74219 19.8516 5.21484 19.6289 4.79297 19.207C4.37109 18.7852 4.14844 18.2578 4.125 17.625V6.375C4.14844 5.74219 4.37109 5.21484 4.79297 4.79297C5.21484 4.37109 5.74219 4.14844 6.375 4.125ZM15.9727 10.3477C16.3008 9.94922 16.3008 9.55078 15.9727 9.15234C15.5742 8.82422 15.1758 8.82422 14.7773 9.15234L10.875 13.0547L9.22266 11.4023C8.82422 11.0742 8.42578 11.0742 8.02734 11.4023C7.69922 11.8008 7.69922 12.1992 8.02734 12.5977L10.2773 14.8477C10.6758 15.1758 11.0742 15.1758 11.4727 14.8477L15.9727 10.3477Z" fill="white"/>
</svg>
