<svg width="32" height="32" viewBox="0 0 32 32" fill="none" xmlns="http://www.w3.org/2000/svg">
<g id="ico_checkbox">
<path id="Icon" d="M8.5 5.50098H23.5C24.3438 5.53223 25.0469 5.8291 25.6094 6.3916C26.1719 6.9541 26.4688 7.65723 26.5 8.50098V23.501C26.4688 24.3447 26.1719 25.0479 25.6094 25.6104C25.0469 26.1729 24.3438 26.4697 23.5 26.501H8.5C7.65625 26.4697 6.95312 26.1729 6.39062 25.6104C5.82812 25.0479 5.53125 24.3447 5.5 23.501V8.50098C5.53125 7.65723 5.82812 6.9541 6.39062 6.3916C6.95312 5.8291 7.65625 5.53223 8.5 5.50098ZM21.2969 13.7979C21.7344 13.2666 21.7344 12.7354 21.2969 12.2041C20.7656 11.7666 20.2344 11.7666 19.7031 12.2041L14.5 17.4072L12.2969 15.2041C11.7656 14.7666 11.2344 14.7666 10.7031 15.2041C10.2656 15.7354 10.2656 16.2666 10.7031 16.7979L13.7031 19.7979C14.2344 20.2354 14.7656 20.2354 15.2969 19.7979L21.2969 13.7979Z" fill="#D5D5D5"/>
</g>
</svg>
