<svg xmlns="http://www.w3.org/2000/svg" width="24" height="24" viewBox="0 0 24 24" fill="none">
<path fill-rule="evenodd" clip-rule="evenodd" d="M19.5 1.99829H4.5C4.23478 1.99829 3.98043 2.10365 3.79289 2.29118C3.60536 2.47872 3.5 2.73307 3.5 2.99829V20.9983C3.5 21.2635 3.60536 21.5179 3.79289 21.7054C3.98043 21.8929 4.23478 21.9983 4.5 21.9983H13V16.9983C13 15.6203 14.122 14.4983 15.5 14.4983H20.5V2.99829C20.5 2.73307 20.3946 2.47872 20.2071 2.29118C20.0196 2.10365 19.7652 1.99829 19.5 1.99829Z" fill="#D7B1FF"/>
<path fill-rule="evenodd" clip-rule="evenodd" d="M14.5 16.9978V21.9978L20.5 15.9978H15.5C15.2348 15.9978 14.9804 16.1032 14.7929 16.2907C14.6054 16.4782 14.5 16.7326 14.5 16.9978Z" fill="#D7B1FF"/>
</svg>