<svg width="24" height="24" viewBox="0 0 24 24" fill="none" xmlns="http://www.w3.org/2000/svg">
<path d="M18.999 12.8086L13.374 18.4336C13.1396 18.6445 12.8701 18.75 12.5654 18.75C12.2607 18.75 11.9912 18.6445 11.7568 18.4336C11.5459 18.1992 11.4404 17.9297 11.4404 17.625C11.4404 17.3203 11.5459 17.0508 11.7568 16.8164L16.6084 12L11.7568 7.18359C11.5459 6.94922 11.4404 6.67969 11.4404 6.375C11.4404 6.07031 11.5459 5.80078 11.7568 5.56641C11.9912 5.35547 12.2607 5.25 12.5654 5.25C12.8701 5.25 13.1396 5.35547 13.374 5.56641L18.999 11.1914C19.21 11.4258 19.3154 11.6953 19.3154 12C19.3154 12.3047 19.21 12.5742 18.999 12.8086ZM6.62402 18.4336C6.38965 18.6445 6.12012 18.75 5.81543 18.75C5.51074 18.75 5.24121 18.6445 5.00684 18.4336C4.7959 18.1992 4.69043 17.9297 4.69043 17.625C4.69043 17.3203 4.7959 17.0508 5.00684 16.8164L9.8584 12L5.00684 7.18359C4.7959 6.94922 4.69043 6.67969 4.69043 6.375C4.69043 6.07031 4.7959 5.80078 5.00684 5.56641C5.24121 5.35547 5.51074 5.25 5.81543 5.25C6.12012 5.25 6.38965 5.35547 6.62402 5.56641L12.249 11.1914C12.46 11.4258 12.5654 11.6953 12.5654 12C12.5654 12.3047 12.46 12.5742 12.249 12.8086L6.62402 18.4336Z" fill="white"/>
</svg>
