<svg width="24" height="24" viewBox="0 0 24 24" fill="none" xmlns="http://www.w3.org/2000/svg">
<path d="M5.00684 11.1914L10.6318 5.56641C10.8662 5.35547 11.1357 5.25 11.4404 5.25C11.7451 5.25 12.0146 5.35547 12.249 5.56641C12.46 5.80078 12.5654 6.07031 12.5654 6.375C12.5654 6.67969 12.46 6.94922 12.249 7.18359L7.39746 12L12.249 16.8164C12.46 17.0508 12.5654 17.3203 12.5654 17.625C12.5654 17.9297 12.46 18.1992 12.249 18.4336C12.0146 18.6445 11.7451 18.75 11.4404 18.75C11.1357 18.75 10.8662 18.6445 10.6318 18.4336L5.00684 12.8086C4.7959 12.5742 4.69043 12.3047 4.69043 12C4.69043 11.6953 4.7959 11.4258 5.00684 11.1914ZM17.3818 5.56641C17.6162 5.35547 17.8857 5.25 18.1904 5.25C18.4951 5.25 18.7646 5.35547 18.999 5.56641C19.21 5.80078 19.3154 6.07031 19.3154 6.375C19.3154 6.67969 19.21 6.94922 18.999 7.18359L14.1475 12L18.999 16.8164C19.21 17.0508 19.3154 17.3203 19.3154 17.625C19.3154 17.9297 19.21 18.1992 18.999 18.4336C18.7646 18.6445 18.4951 18.75 18.1904 18.75C17.8857 18.75 17.6162 18.6445 17.3818 18.4336L11.7568 12.8086C11.5459 12.5742 11.4404 12.3047 11.4404 12C11.4404 11.6953 11.5459 11.4258 11.7568 11.1914L17.3818 5.56641Z" fill="white"/>
</svg>
