<svg width="24" height="24" viewBox="0 0 24 24" fill="none" xmlns="http://www.w3.org/2000/svg">
<path fill-rule="evenodd" clip-rule="evenodd" d="M17.3439 3C16.758 3 16.2306 3.21094 15.7619 3.63281L14.0392 5.35547L18.6095 9.92578L20.3322 8.20312C20.754 7.75781 20.965 7.23047 20.965 6.62109C20.965 6.03516 20.754 5.50781 20.3322 5.03906L18.9259 3.63281C18.4806 3.21094 17.9533 3 17.3439 3ZM17.8361 10.6992L13.2658 6.12891L5.07436 14.3555C4.69936 14.707 4.42983 15.1406 4.26576 15.6562L3.0353 19.875C2.94155 20.2031 3.01186 20.4844 3.24623 20.7188C3.48061 20.9531 3.76186 21.0234 4.08998 20.9297L8.30873 19.6992C8.80092 19.5352 9.23451 19.2773 9.60951 18.9258L17.8361 10.6992ZM11 18.7148C10.4477 18.7148 10 19.1626 10 19.7148C10 20.2671 10.4477 20.7148 11 20.7148H20C20.5523 20.7148 21 20.2671 21 19.7148C21 19.1626 20.5523 18.7148 20 18.7148L11 18.7148Z" fill="white"/>
</svg>
