<svg xmlns="http://www.w3.org/2000/svg" width="24" height="24" viewBox="0 0 24 24" fill="none">
  <path fill-rule="evenodd" clip-rule="evenodd" d="M12 17.1173C11.6817 17.1173 11.3765 16.9908 11.1515 16.7658C10.9264 16.5408 10.8 16.2355 10.8 15.9173C10.8 15.599 10.9264 15.2938 11.1515 15.0687C11.3765 14.8437 11.6817 14.7173 12 14.7173C12.3183 14.7173 12.6235 14.8437 12.8485 15.0687C13.0736 15.2938 13.2 15.599 13.2 15.9173C13.2 16.2355 13.0736 16.5408 12.8485 16.7658C12.6235 16.9908 12.3183 17.1173 12 17.1173ZM11 7.28227C11 7.01705 11.1054 6.7627 11.2929 6.57516C11.4804 6.38762 11.7348 6.28227 12 6.28227C12.2652 6.28227 12.5196 6.38762 12.7071 6.57516C12.8946 6.7627 13 7.01705 13 7.28227V12.2823C13 12.5475 12.8946 12.8018 12.7071 12.9894C12.5196 13.1769 12.2652 13.2823 12 13.2823C11.7348 13.2823 11.4804 13.1769 11.2929 12.9894C11.1054 12.8018 11 12.5475 11 12.2823V7.28227ZM12 0.999268C5.925 0.999268 1 5.92427 1 11.9993C1 18.0753 5.925 22.9993 12 22.9993C18.075 22.9993 23 18.0753 23 11.9993C23 5.92427 18.075 0.999268 12 0.999268Z" fill="#FF7568"/>
</svg>