<svg width="24" height="24" viewBox="0 0 24 24" fill="none" xmlns="http://www.w3.org/2000/svg">
<path d="M5.25 5.25C5.27344 4.61719 5.49609 4.08984 5.91797 3.66797C6.33984 3.24609 6.86719 3.02344 7.5 3H13.125V7.5C13.125 7.82812 13.2305 8.09766 13.4414 8.30859C13.6523 8.51953 13.9219 8.625 14.25 8.625H18.75V18.75C18.7266 19.3828 18.5039 19.9102 18.082 20.332C17.6602 20.7539 17.1328 20.9766 16.5 21H7.5C6.86719 20.9766 6.33984 20.7539 5.91797 20.332C5.49609 19.9102 5.27344 19.3828 5.25 18.75V5.25ZM18.75 7.5H14.25V3L18.75 7.5Z" fill="white"/>
</svg>
