<svg width="24" height="24" viewBox="0 0 24 24" fill="none" xmlns="http://www.w3.org/2000/svg">
<path d="M10.875 3C11.2031 3 11.4727 3.10547 11.6836 3.31641C11.8945 3.52734 12 3.79688 12 4.125V8.0625H9.75V4.125C9.75 3.79688 9.85547 3.52734 10.0664 3.31641C10.2773 3.10547 10.5469 3 10.875 3ZM6.375 5.25C6.375 4.92188 6.48047 4.65234 6.69141 4.44141C6.90234 4.23047 7.17188 4.125 7.5 4.125C7.82812 4.125 8.09766 4.23047 8.30859 4.44141C8.51953 4.65234 8.625 4.92188 8.625 5.25V8.0625H6.375V5.25ZM13.125 5.25C13.125 4.92188 13.2305 4.65234 13.4414 4.44141C13.6523 4.23047 13.9219 4.125 14.25 4.125C14.5781 4.125 14.8477 4.23047 15.0586 4.44141C15.2695 4.65234 15.375 4.92188 15.375 5.25V8.625C15.375 8.95312 15.2695 9.22266 15.0586 9.43359C14.8477 9.64453 14.5781 9.75 14.25 9.75C13.9219 9.75 13.6523 9.64453 13.4414 9.43359C13.2305 9.22266 13.125 8.95312 13.125 8.625V5.25ZM16.5 7.5C16.5 7.17188 16.6055 6.90234 16.8164 6.69141C17.0273 6.48047 17.2969 6.375 17.625 6.375C17.9531 6.375 18.2227 6.48047 18.4336 6.69141C18.6445 6.90234 18.75 7.17188 18.75 7.5V9.75C18.75 10.0781 18.6445 10.3477 18.4336 10.5586C18.2227 10.7695 17.9531 10.875 17.625 10.875C17.2969 10.875 17.0273 10.7695 16.8164 10.5586C16.6055 10.3477 16.5 10.0781 16.5 9.75V7.5ZM13.125 10.5938V10.5586C13.4531 10.7695 13.8281 10.875 14.25 10.875C14.7188 10.875 15.1406 10.7461 15.5156 10.4883C15.6562 10.9336 15.9258 11.2969 16.3242 11.5781C16.6992 11.8594 17.1328 12 17.625 12C18.0469 12 18.4219 11.8945 18.75 11.6836V12C18.75 12.9375 18.5508 13.793 18.1523 14.5664C17.7539 15.3398 17.2031 15.9844 16.5 16.5V19.875C16.5 20.2031 16.3945 20.4727 16.1836 20.6836C15.9727 20.8945 15.7031 21 15.375 21H9.75C9.42188 21 9.15234 20.8945 8.94141 20.6836C8.73047 20.4727 8.625 20.2031 8.625 19.875V17.1328C8.01562 16.8516 7.46484 16.4648 6.97266 15.9727L6.58594 15.5859C5.71875 14.6953 5.27344 13.6289 5.25 12.3867V11.4375C5.27344 10.8047 5.49609 10.2773 5.91797 9.85547C6.33984 9.43359 6.86719 9.21094 7.5 9.1875H10.5938C10.9922 9.1875 11.3203 9.32812 11.5781 9.60938C11.8594 9.86719 12 10.1953 12 10.5938C12 10.9922 11.8594 11.3203 11.5781 11.5781C11.3203 11.8594 10.9922 12 10.5938 12H8.625C8.27344 12.0234 8.08594 12.2109 8.0625 12.5625C8.08594 12.9141 8.27344 13.1016 8.625 13.125H10.5938C11.3203 13.1016 11.918 12.8555 12.3867 12.3867C12.8555 11.918 13.1016 11.3203 13.125 10.5938Z" fill="white"/>
</svg>
