<svg width="24" height="24" viewBox="0 0 24 24" fill="none" xmlns="http://www.w3.org/2000/svg">
<path d="M14.8125 16.5H9.1875C8.78906 15.3984 8.21484 14.3906 7.46484 13.4766C7.46484 13.4766 7.46484 13.4648 7.46484 13.4414C7.27734 13.207 7.08984 12.9609 6.90234 12.7031C6.19922 11.6953 5.83594 10.5234 5.8125 9.1875C5.85938 7.42969 6.46875 5.97656 7.64062 4.82812C8.78906 3.65625 10.2422 3.04688 12 3C13.7578 3.04688 15.2109 3.65625 16.3594 4.82812C17.5312 5.97656 18.1406 7.42969 18.1875 9.1875C18.1641 10.5234 17.8008 11.6953 17.0977 12.7031C16.9102 12.9609 16.7227 13.2188 16.5352 13.4766C16.5352 13.4766 16.5352 13.4883 16.5352 13.5117C15.7852 14.4258 15.2109 15.4219 14.8125 16.5ZM12 21C11.2031 20.9766 10.5352 20.707 9.99609 20.1914C9.48047 19.6523 9.21094 18.9844 9.1875 18.1875V17.625H14.8125V18.1875C14.7891 18.9844 14.5195 19.6523 14.0039 20.1914C13.4648 20.707 12.7969 20.9766 12 21ZM9.1875 9.1875C9.21094 8.39062 9.48047 7.72266 9.99609 7.18359C10.5352 6.66797 11.2031 6.39844 12 6.375C12.3516 6.35156 12.5391 6.16406 12.5625 5.8125C12.5391 5.46094 12.3516 5.27344 12 5.25C10.875 5.27344 9.94922 5.66016 9.22266 6.41016C8.47266 7.13672 8.08594 8.0625 8.0625 9.1875C8.08594 9.53906 8.27344 9.72656 8.625 9.75C8.97656 9.72656 9.16406 9.53906 9.1875 9.1875Z" fill="#D6AA59"/>
</svg>
