<svg width="24" height="24" viewBox="0 0 24 24" fill="none" xmlns="http://www.w3.org/2000/svg">
<path d="M15.0208 17.5312H8.13281C7.64491 16.1823 6.94176 14.9482 6.02336 13.8289C6.02336 13.8289 6.02336 13.8146 6.02336 13.7859C5.79376 13.4989 5.56415 13.1975 5.33455 12.8818C4.47355 11.6477 4.0287 10.2127 4 8.57682C4.0574 6.42432 4.8036 4.64491 6.23861 3.23861C7.64491 1.8036 9.42432 1.0574 11.5768 1C13.7293 1.0574 15.5087 1.8036 16.915 3.23861C18.35 4.64491 19.0962 6.42432 19.1536 8.57682C19.1249 10.2127 18.6801 11.6477 17.8191 12.8818C17.5895 13.1975 17.3599 13.5132 17.1303 13.8289C17.1303 13.8289 17.1303 13.8433 17.1303 13.872C16.2119 14.9913 15.5087 16.211 15.0208 17.5312ZM8.13281 18.9089H15.0208V23.0417H8.13281V18.9089Z" fill="white"/>
</svg>
