<svg width="150" height="151" viewBox="0 0 150 151" fill="none" xmlns="http://www.w3.org/2000/svg">
<rect y="0.522949" width="150" height="150" rx="14" fill="#191E22"/>
<path d="M40 118.422V32.5229H78.058C87.8409 32.5229 95.2179 34.3125 100.189 37.8916C105.16 41.431 107.645 46.6008 107.645 53.4012C107.645 57.7756 106.751 61.2951 104.961 63.9596C103.171 66.624 100.925 68.6323 98.2204 69.9844C95.5161 71.2968 92.792 72.1518 90.048 72.5494L90.227 72.3108C96.4308 73.305 101.342 75.6712 104.961 79.4094C108.62 83.1079 110.449 88.2379 110.449 94.7996C110.449 100.725 109.037 105.418 106.214 108.878C103.43 112.337 99.7315 114.803 95.1185 116.274C90.5054 117.706 85.4747 118.422 80.0265 118.422H40ZM58.4325 104.105H76.8053C80.7821 104.105 83.8442 103.549 85.9917 102.435C88.1789 101.282 89.6901 99.7905 90.5253 97.9612C91.4002 96.0921 91.8376 94.0639 91.8376 91.8767C91.8376 89.3316 91.261 87.1443 90.1077 85.315C88.9942 83.4459 87.2046 81.9944 84.739 80.9604C82.3132 79.9264 79.0919 79.4094 75.0754 79.4094H58.4325V104.105ZM58.4325 65.8684H76.686C80.5435 65.8684 83.5857 65.1327 85.8127 63.6613C88.0398 62.1501 89.1533 59.7044 89.1533 56.3241C89.1533 53.5006 88.2585 51.2139 86.4689 49.4641C84.6794 47.7143 81.5178 46.8394 76.9842 46.8394H58.4325V65.8684Z" fill="#AEE8FF"/>
</svg>
