<svg width="150" height="151" viewBox="0 0 150 151" fill="none" xmlns="http://www.w3.org/2000/svg">
<rect y="0.522949" width="150" height="150" rx="14" fill="#191E22"/>
<path d="M30 118.422L62.9279 32.5229H86.3712L119.18 118.422H99.3753L74.5601 45.885L49.8045 118.422H30ZM51.5344 94.919V80.1849H97.4664V94.919H51.5344Z" fill="#AEE8FF"/>
<path d="M113.179 27.2729L116.339 34.1837L123.25 37.3444C123.714 37.5944 123.964 37.9872 124 38.5229C123.964 39.0587 123.714 39.4515 123.25 39.7015L116.339 42.8622L113.179 49.7729C112.929 50.2372 112.536 50.4872 112 50.5229C111.464 50.4872 111.071 50.2372 110.821 49.7729L107.661 42.8622L100.75 39.7015C100.286 39.4515 100.036 39.0587 100 38.5229C100.036 37.9872 100.286 37.5944 100.75 37.3444L107.661 34.1837L110.821 27.2729C111.071 26.8087 111.464 26.5587 112 26.5229C112.536 26.5587 112.929 26.8087 113.179 27.2729Z" fill="#D7ADFE"/>
</svg>
