<svg width="150" height="151" viewBox="0 0 150 151" fill="none" xmlns="http://www.w3.org/2000/svg">
<rect y="0.522949" width="150" height="150" rx="14" fill="#191E22"/>
<path d="M74.2976 119C70.3583 119 66.419 118.874 62.4797 118.622C58.5404 118.37 54.6867 117.991 50.9187 117.487C47.1507 116.899 43.5111 116.31 40 115.722V34.2779C45.3951 33.3534 50.8331 32.5969 56.3138 32.0086C61.8802 31.3362 67.5751 31 73.3984 31C82.4759 31 90.4401 32.8071 97.2911 36.4212C104.142 40.0353 109.451 45.0783 113.22 51.5501C117.073 58.022 119 65.6285 119 74.3696C119 80.5893 117.972 86.4308 115.917 91.894C113.862 97.2732 110.907 102.022 107.054 106.14C103.2 110.175 98.49 113.327 92.9236 115.596C87.4428 117.865 81.2341 119 74.2976 119ZM73.7837 102.61C79.4358 102.61 84.2743 101.392 88.2992 98.9542C92.3241 96.5167 95.4071 93.2388 97.548 89.1203C99.6889 84.9179 100.759 80.2111 100.759 75C100.759 69.6208 99.6889 64.872 97.548 60.7536C95.4071 56.5511 92.3241 53.2732 88.2992 50.9198C84.2743 48.5664 79.4358 47.3897 73.7837 47.3897C71.2146 47.3897 68.5171 47.5158 65.6911 47.7679C62.9507 48.0201 60.3388 48.3563 57.8553 48.7765V101.223C60.4244 101.728 63.0791 102.106 65.8195 102.358C68.6455 102.526 71.3003 102.61 73.7837 102.61Z" fill="#AEE8FF"/>
</svg>
