<svg width="150" height="151" viewBox="0 0 150 151" fill="none" xmlns="http://www.w3.org/2000/svg">
<rect y="0.522949" width="150" height="150" rx="14" fill="#191E22"/>
<path d="M75.5479 120.523C67.863 120.523 61.2648 119.2 55.7534 116.554C50.242 113.83 45.7397 110.289 42.2466 105.932C38.7534 101.496 36.153 96.7486 34.4452 91.6903C32.8151 86.5541 32 81.5735 32 76.7486V74.1805C32 68.8887 32.8539 63.6747 34.5616 58.5385C36.2694 53.3245 38.8699 48.6163 42.363 44.414C45.9338 40.2117 50.3973 36.8654 55.7534 34.3751C61.1872 31.807 67.5913 30.5229 74.9658 30.5229C82.6507 30.5229 89.4429 31.9626 95.3425 34.842C101.242 37.7214 105.938 41.7292 109.432 46.8654C113.002 51.9237 115.098 57.877 115.719 64.7253H96.5068C95.9635 61.3012 94.7215 58.3829 92.7808 55.9704C90.8402 53.558 88.3173 51.6903 85.2123 50.3673C82.1849 49.0443 78.7694 48.3829 74.9658 48.3829C71.1621 48.3829 67.7854 49.0443 64.8356 50.3673C61.8858 51.6903 59.4018 53.558 57.3836 55.9704C55.4429 58.3829 53.9292 61.2622 52.8425 64.6086C51.8333 67.877 51.3288 71.5346 51.3288 75.5813C51.3288 79.5502 51.8333 83.2078 52.8425 86.5541C53.9292 89.8226 55.4817 92.7019 57.5 95.1922C59.5959 97.6047 62.1575 99.4724 65.1849 100.795C68.2123 102.04 71.6667 102.663 75.5479 102.663C81.4475 102.663 86.4155 101.223 90.452 98.344C94.5662 95.4646 97.0502 91.4957 97.9041 86.4373H117C116.301 92.663 114.205 98.3829 110.712 103.597C107.297 108.733 102.6 112.858 96.6233 115.97C90.7237 119.005 83.6986 120.523 75.5479 120.523Z" fill="#AEE8FF"/>
</svg>
