<svg width="15" height="16" viewBox="0 0 15 16" fill="none" xmlns="http://www.w3.org/2000/svg">
<path d="M9.43304 1.74409L13.5254 5.83649L14.037 6.34804L13.0139 7.37115L12.5023 6.8596L12.0387 6.396L9.83269 8.95376C10.0245 9.67845 10.0565 10.3179 9.9286 10.8721C9.80071 11.4049 9.63553 11.7726 9.43304 11.9751L8.92149 12.4867L2.78288 6.34804L3.29443 5.83649C3.52889 5.60203 3.91255 5.42086 4.44542 5.29297C4.9996 5.16508 5.62838 5.20771 6.33176 5.42086L8.88951 3.24677L8.40994 2.76719L7.89838 2.25564L8.92149 1.23254L9.43304 1.74409L8.92149 1.23254L9.43304 1.74409ZM3.29443 10.952L4.82908 9.41735L5.85218 10.4405L4.31753 11.9751L3.80598 12.4867L2.78288 11.4636L3.29443 10.952L2.78288 11.4636L3.29443 10.952Z" fill="#55C467"/>
</svg>
