<svg xmlns="http://www.w3.org/2000/svg" width="36" height="36" viewBox="0 0 36 36" fill="none">
<path fill-rule="evenodd" clip-rule="evenodd" d="M8.34508 7.9461C9.01874 7.27244 10.1109 7.27244 10.7846 7.9461L18.0934 15.2549L25.3712 7.97713C26.0013 7.34701 27.0229 7.34701 27.653 7.97713C28.2832 8.60725 28.2832 9.62887 27.653 10.259L20.3753 17.5368L27.6491 24.8106C28.3228 25.4842 28.3228 26.5765 27.6491 27.2501C26.9754 27.9238 25.8832 27.9238 25.2096 27.2501L17.9358 19.9763L10.6309 27.2811C10.0008 27.9113 8.97914 27.9113 8.34902 27.2811C7.71891 26.651 7.71891 25.6294 8.34902 24.9993L15.6539 17.6944L8.34508 10.3856C7.67143 9.71196 7.67143 8.61975 8.34508 7.9461Z" fill="white"/>
</svg>
