<svg width="24" height="24" viewBox="0 0 24 24" fill="none" xmlns="http://www.w3.org/2000/svg">
<path d="M13.2081 19.982C12.7008 21.3349 12.4471 22.0114 12 22.0114C11.5529 22.0114 11.2992 21.3349 10.7919 19.982L9.20763 15.7573C9.0781 15.4119 9.01333 15.2392 8.88704 15.1129C8.76076 14.9866 8.58805 14.9219 8.24262 14.7923L4.01797 13.2081C2.66502 12.7007 1.98854 12.447 1.98854 12C1.98854 11.5529 2.66502 11.2992 4.01797 10.7918L8.24262 9.20759C8.58805 9.07805 8.76076 9.01329 8.88704 8.887C9.01333 8.76071 9.0781 8.588 9.20763 8.24258L10.7919 4.01793C11.2992 2.66498 11.5529 1.9885 12 1.9885C12.4471 1.9885 12.7008 2.66498 13.2081 4.01793L14.7924 8.24257C14.9219 8.588 14.9867 8.76071 15.113 8.887C15.2392 9.01329 15.412 9.07805 15.7574 9.20759L19.982 10.7918C21.335 11.2992 22.0115 11.5529 22.0115 12C22.0115 12.447 21.335 12.7007 19.982 13.2081L15.7574 14.7923C15.412 14.9219 15.2392 14.9866 15.113 15.1129C14.9867 15.2392 14.9219 15.4119 14.7924 15.7573L13.2081 19.982Z" fill="#D7ADFE"/>
</svg>
