<svg width="24" height="24" viewBox="0 0 24 24" fill="none" xmlns="http://www.w3.org/2000/svg">
<path d="M4.44141 11.1914L10.0664 5.56641C10.3008 5.35547 10.5703 5.25 10.875 5.25C11.1797 5.25 11.4492 5.35547 11.6836 5.56641C11.8945 5.80078 12 6.07031 12 6.375C12 6.67969 11.8945 6.94922 11.6836 7.18359L7.95703 10.875H18.75C19.0781 10.875 19.3477 10.9805 19.5586 11.1914C19.7695 11.4023 19.875 11.6719 19.875 12C19.875 12.3281 19.7695 12.5977 19.5586 12.8086C19.3477 13.0195 19.0781 13.125 18.75 13.125H7.95703L11.6836 16.8164C11.8945 17.0508 12 17.3203 12 17.625C12 17.9297 11.8945 18.1992 11.6836 18.4336C11.4492 18.6445 11.1797 18.75 10.875 18.75C10.5703 18.75 10.3008 18.6445 10.0664 18.4336L4.44141 12.8086C4.23047 12.5742 4.125 12.3047 4.125 12C4.125 11.6953 4.23047 11.4258 4.44141 11.1914Z" fill="white"/>
</svg>
