<svg width="18" height="18" viewBox="0 0 18 18" fill="none" xmlns="http://www.w3.org/2000/svg">
<path fill-rule="evenodd" clip-rule="evenodd" d="M15.7255 9.27133C15.4903 9.23039 15.2486 9.28451 15.0534 9.42178C14.8582 9.55905 14.7255 9.76823 14.6845 10.0033C14.451 11.3449 13.7508 12.5608 12.7076 13.4361C11.6644 14.3114 10.3455 14.7898 8.98371 14.7868C5.79321 14.7868 3.19746 12.1911 3.19746 8.99983C3.19746 5.80933 5.79321 3.21358 8.98371 3.21358C10.4342 3.21358 11.7985 3.74908 12.865 4.71658L12.121 5.46058C12.0236 5.55754 11.9551 5.67961 11.923 5.8132C11.8909 5.94679 11.8965 6.08666 11.9392 6.21725C11.9819 6.34784 12.06 6.46404 12.1647 6.5529C12.2695 6.64176 12.3969 6.69981 12.5327 6.72058L15.6917 7.20808C15.8071 7.22587 15.9251 7.21619 16.036 7.17983C16.147 7.14347 16.2478 7.08145 16.3303 6.99881C16.4128 6.91617 16.4747 6.81524 16.5108 6.70422C16.547 6.59319 16.5565 6.4752 16.5385 6.35983L16.0517 3.20158C16.0308 3.06586 15.9727 2.93859 15.8838 2.83389C15.795 2.72918 15.6789 2.65114 15.5484 2.60841C15.4179 2.56569 15.2781 2.55995 15.1445 2.59185C15.011 2.62374 14.8888 2.69201 14.7917 2.78908L14.1377 3.44383C12.7399 2.13704 10.8972 1.41117 8.98371 1.41358C4.80096 1.41358 1.39746 4.81708 1.39746 8.99983C1.39746 13.1833 4.80096 16.5861 8.98371 16.5861C12.6797 16.5861 15.8222 13.9476 16.4575 10.3123C16.4984 10.0772 16.4443 9.83548 16.307 9.64026C16.1697 9.44504 15.9606 9.31234 15.7255 9.27133Z" fill="white"/>
</svg>
