<svg width="183" height="48" viewBox="0 0 183 48" fill="none" xmlns="http://www.w3.org/2000/svg">
<path fill-rule="evenodd" clip-rule="evenodd" d="M26.1484 23.2869L20.9435 6.98438H5.35254V15.8177L21.1829 20.8718C21.5618 20.9928 21.5618 21.529 21.1829 21.65L5.35254 26.7041V42.9873H13.5498L18.7812 26.6016C18.9022 26.2226 19.4384 26.2226 19.5593 26.6016L24.7908 42.9873H41.3554V34.3978L24.4988 29.016C24.1199 28.895 24.1199 28.3588 24.4988 28.2379L41.3554 22.8561V6.98438H32.1314L26.9265 23.2869C26.8055 23.6658 26.2694 23.6658 26.1484 23.2869Z" fill="#AEE8FF"/>
<ellipse cx="111.48" cy="9.34058" rx="4.68174" ry="4.41871" fill="#AEE8FF"/>
<ellipse cx="143.675" cy="9.34058" rx="4.68174" ry="4.41871" fill="#AEE8FF"/>
<path d="M85.0274 21.1256H83.9075C81.6462 21.1256 79.3849 21.1256 77.1236 21.1256C76.2467 21.1256 76.2539 21.1256 76.0466 20.2868C75.3889 17.6252 73.9283 15.5402 71.5574 14.1296C69.7131 13.0311 67.6853 12.7523 65.5908 13.0002C62.0309 13.4219 59.66 15.4449 58.2684 18.6617C57.1318 21.2876 57.0484 24.0373 57.5012 26.8181C57.9158 29.3796 58.9618 31.6266 61.0039 33.3017C63.0722 34.9983 65.486 35.6345 68.119 35.2437C72.4676 34.598 74.9529 31.9054 76.0871 27.7998C76.1133 27.7045 76.1348 27.6068 76.161 27.5115C76.1919 27.3971 76.2277 27.2851 76.273 27.1302H85.0751C84.8892 28.0262 84.7605 28.9007 84.527 29.7466C83.6597 32.8823 82.0918 35.6178 79.7018 37.8505C76.9497 40.4216 73.7329 42.0156 69.9752 42.5589C67.7282 42.883 65.4931 42.8782 63.2866 42.4732C60.8729 42.0276 58.6187 41.084 56.6005 39.6614C53.7149 37.6265 51.5584 34.9887 50.1859 31.7338C49.1661 29.3153 48.711 26.78 48.6967 24.1589C48.6752 20.5942 49.5211 17.2654 51.3631 14.2011C53.5481 10.5673 56.6648 8.05107 60.6227 6.57373C63.8823 5.35849 67.2326 5.23458 70.6305 5.86364C75.3508 6.73813 79.1419 9.09951 81.956 12.9763C83.6501 15.3091 84.5842 17.9636 85.0203 20.7991C85.0322 20.8754 85.0203 20.9516 85.0203 21.1279L85.0274 21.1256Z" fill="#AEE8FF"/>
<path d="M177.694 42.0552C174.875 42.0552 172.159 42.0647 169.443 42.0361C169.235 42.0361 168.959 41.8002 168.835 41.6C167.098 38.7693 165.382 35.9266 163.66 33.0863C163.609 33.0052 163.548 32.9314 163.457 32.8122C162.425 34.566 161.415 36.2864 160.405 38.0068C159.683 39.2339 158.968 40.4658 158.227 41.6811C158.124 41.8502 157.884 42.0385 157.705 42.0409C155.027 42.0647 152.351 42.0575 149.556 42.0575C149.863 41.5691 150.123 41.1402 150.397 40.7232C152.97 36.7796 155.537 32.8337 158.129 28.9044C158.372 28.5375 158.322 28.3063 158.11 27.9704C155.498 23.8457 152.899 19.7115 150.297 15.5797C150.266 15.5321 150.242 15.4797 150.185 15.3701C150.359 15.3486 150.502 15.3176 150.645 15.3176C153.244 15.3152 155.842 15.32 158.441 15.3081C158.775 15.3081 158.968 15.3939 159.142 15.706C160.593 18.2938 162.065 20.8696 163.533 23.4478C163.669 23.6861 163.81 23.9196 163.995 24.2365C164.613 23.1642 165.194 22.1658 165.766 21.1579C166.81 19.3184 167.841 17.4717 168.899 15.6393C168.987 15.4892 169.221 15.3319 169.388 15.3319C171.906 15.3129 174.423 15.3176 177.053 15.3176C176.87 15.6536 176.734 15.9253 176.577 16.185C174.146 20.1929 171.721 24.2031 169.271 28.1991C169.018 28.6113 169.002 28.8877 169.278 29.3024C172.002 33.3817 174.699 37.4754 177.404 41.5667C177.489 41.6954 177.561 41.8336 177.694 42.0599V42.0552Z" fill="#AEE8FF"/>
<path d="M122.578 21.8796H117.376V15.3174H122.561V7.51367H130.143V15.3031H137.616V21.8534H130.184C130.169 22.1108 130.15 22.3014 130.15 22.492C130.15 25.4229 130.143 28.3537 130.155 31.2846C130.155 31.7969 130.198 32.314 130.284 32.8191C130.562 34.4251 131.716 35.4474 133.357 35.5045C134.046 35.5284 134.749 35.495 135.426 35.3759C136.095 35.2567 136.739 34.9922 137.444 34.7778V35.8381C137.444 37.2249 137.368 38.6165 137.47 39.9962C137.544 40.9826 137.241 41.5092 136.293 41.8071C132.824 42.896 129.423 43.0223 126.219 41.0422C124.188 39.7888 123.183 37.8087 122.799 35.5141C122.642 34.5633 122.592 33.5864 122.585 32.619C122.561 29.2926 122.575 25.9638 122.575 22.6374V21.882L122.578 21.8796Z" fill="#AEE8FF"/>
<path d="M88.0088 42.0268V15.3679H94.9571V20.2575C97.6091 16.5903 101.221 15.275 105.432 15.0605V22.9286C105.046 22.9095 104.66 22.8928 104.276 22.8738C102.646 22.7928 101.028 22.8619 99.4415 23.2812C97.0945 23.9032 95.6505 25.8261 95.61 28.5782C95.5528 32.517 95.5814 36.4582 95.5742 40.3994C95.5742 40.9307 95.5742 41.4597 95.5742 42.0244H88.0112L88.0088 42.0268Z" fill="#AEE8FF"/>
<path d="M107.72 15.3486H115.221V42.0147H107.72V15.3486Z" fill="#AEE8FF"/>
<path d="M147.409 42.0337H139.946V15.3486H147.409V42.0337Z" fill="#AEE8FF"/>
</svg>
