<svg width="100" height="24" viewBox="0 0 100 24" fill="none" xmlns="http://www.w3.org/2000/svg">
<g clip-path="url(#clip0_2313_12472)">
<path fill-rule="evenodd" clip-rule="evenodd" d="M62.7781 23.0724H58.3847V7.78109H62.7781V23.0724ZM63.4343 4.21503C63.4343 4.95677 63.168 5.57489 62.6355 6.06938C62.1029 6.54486 61.4088 6.78259 60.5529 6.78259C59.697 6.78259 59.0028 6.54486 58.4703 6.06938C57.9378 5.57489 57.6715 4.95677 57.6715 4.21503C57.6715 3.47329 57.9378 2.86468 58.4703 2.3892C59.0028 1.89471 59.697 1.64746 60.5529 1.64746C61.4088 1.64746 62.1029 1.89471 62.6355 2.3892C63.168 2.86468 63.4343 3.47329 63.4343 4.21503ZM82.1879 23.0724H77.7945V7.78109H82.1879V23.0724ZM82.844 4.21503C82.844 4.95677 82.5778 5.57489 82.0452 6.06938C81.5127 6.54486 80.8185 6.78259 79.9627 6.78259C79.1068 6.78259 78.4126 6.54486 77.8801 6.06938C77.3475 5.57489 77.0813 4.95677 77.0813 4.21503C77.0813 3.47329 77.3475 2.86468 77.8801 2.3892C78.4126 1.89471 79.1068 1.64746 79.9627 1.64746C80.8185 1.64746 81.5127 1.89471 82.0452 2.3892C82.5778 2.86468 82.844 3.47329 82.844 4.21503ZM88.0801 23.0723H83.1732L88.2228 15.3126L83.5156 7.78106H88.5936L91.475 12.8591L94.3279 7.78106H98.978L94.3279 15.4838L99.3204 23.0723H94.3279L91.1612 17.7946L88.0801 23.0723ZM75.9976 22.5874V18.7645C75.7314 18.9357 75.4175 19.0688 75.0562 19.1639C74.6948 19.24 74.324 19.2781 73.9436 19.2781C73.2589 19.2781 72.7359 19.0974 72.3745 18.736C72.0131 18.3556 71.8325 17.766 71.8325 16.9672V11.292H76.1117V7.49771H71.8325V2.99021H67.4391V7.49771H64.4721V11.292H67.4391V17.9657C67.4391 19.1069 67.6578 20.0864 68.0952 20.9042C68.5327 21.703 69.1413 22.3116 69.9211 22.73C70.7198 23.1484 71.6613 23.3576 72.7454 23.3576C73.373 23.3576 73.9436 23.3006 74.4571 23.1865C74.9706 23.0723 75.4841 22.8726 75.9976 22.5874ZM51.0141 23.0723V15.8261C51.0141 14.704 51.2518 13.8671 51.7273 13.3156C52.2028 12.764 52.8589 12.4217 53.6958 12.2886C54.5516 12.1364 55.5406 12.1079 56.6628 12.203V7.63841C55.4455 7.63841 54.2854 7.90467 53.1823 8.43721C52.0792 8.95072 51.2423 9.67344 50.6718 10.6054V7.78105H46.6207V23.0723H51.0141ZM34.4501 23.727C33.0047 23.727 31.6543 23.4607 30.3991 22.9282C29.1438 22.3766 28.0407 21.6159 27.0897 20.6459C26.1578 19.6569 25.4256 18.5158 24.893 17.2225C24.3605 15.9292 24.0942 14.5313 24.0942 13.0288C24.0942 11.5263 24.3605 10.1379 24.893 8.86364C25.4256 7.57035 26.1578 6.43872 27.0897 5.46875C28.0407 4.49878 29.1438 3.74753 30.3991 3.215C31.6543 2.66344 33.0047 2.38767 34.4501 2.38767C36.2759 2.38767 37.9401 2.76805 39.4426 3.52881C40.9451 4.27055 42.1718 5.32611 43.1228 6.69548C44.0927 8.04583 44.6823 9.60538 44.8915 11.3742H39.7849C39.6328 10.4612 39.3095 9.65293 38.815 8.94923C38.3205 8.24552 37.7024 7.69397 36.9606 7.29457C36.2189 6.89518 35.3915 6.69548 34.4786 6.69548C33.6608 6.69548 32.9191 6.84763 32.2534 7.15193C31.5877 7.45624 31.0172 7.89367 30.5417 8.46424C30.0662 9.01579 29.6954 9.68146 29.4291 10.4612C29.1818 11.241 29.0582 12.0969 29.0582 13.0288C29.0582 13.9798 29.1818 14.8451 29.4291 15.6249C29.6954 16.4047 30.0662 17.0799 30.5417 17.6504C31.0172 18.202 31.5877 18.6394 32.2534 18.9627C32.9191 19.267 33.6608 19.4192 34.4786 19.4192C35.3915 19.4192 36.2189 19.2195 36.9606 18.8201C37.7024 18.4207 38.3205 17.8691 38.815 17.1654C39.3095 16.4427 39.6328 15.6249 39.7849 14.712H44.8915C44.6633 16.4998 44.0642 18.0784 43.0942 19.4477C42.1433 20.7981 40.9166 21.8536 39.4141 22.6144C37.9306 23.3561 36.2759 23.727 34.4501 23.727ZM9.15693 11.2731L0.679688 13.9796V23.1056H5.27731L8.08111 14.3237C8.18897 13.9858 8.66703 13.9858 8.77489 14.3237L11.5787 23.1056H20.8611V18.2891L11.822 15.4032C11.4841 15.2954 11.4841 14.8173 11.822 14.7094L20.8611 11.8235L20.8611 2.9242L15.6942 2.9242L12.9057 11.6583C12.7978 11.9962 12.3198 11.9962 12.2119 11.6583L9.42336 2.9242L0.679688 2.9242V7.87278L9.15693 10.5793C9.49479 10.6872 9.49479 11.1652 9.15693 11.2731Z" fill="#AEE8FF"/>
</g>
<defs>
<clipPath id="clip0_2313_12472">
<rect width="99.4286" height="24" fill="white"/>
</clipPath>
</defs>
</svg>
