<svg width="83" height="20" viewBox="0 0 83 20" fill="none" xmlns="http://www.w3.org/2000/svg">
<g clip-path="url(#clip0_2384_6894)">
<path fill-rule="evenodd" clip-rule="evenodd" d="M51.6481 19.2267H47.9869V6.48392H51.6481V19.2267ZM52.1949 3.5122C52.1949 4.13032 51.973 4.64541 51.5292 5.05749C51.0855 5.45372 50.507 5.65184 49.7938 5.65184C49.0805 5.65184 48.502 5.45372 48.0583 5.05749C47.6145 4.64541 47.3926 4.13032 47.3926 3.5122C47.3926 2.89408 47.6145 2.38691 48.0583 1.99068C48.502 1.5786 49.0805 1.37256 49.7938 1.37256C50.507 1.37256 51.0855 1.5786 51.5292 1.99068C51.973 2.38691 52.1949 2.89408 52.1949 3.5122ZM67.8229 19.2267H64.1617V6.48392H67.8229V19.2267ZM68.3697 3.5122C68.3697 4.13032 68.1478 4.64541 67.704 5.05749C67.2603 5.45372 66.6818 5.65184 65.9685 5.65184C65.2553 5.65184 64.6768 5.45372 64.2331 5.05749C63.7893 4.64541 63.5674 4.13032 63.5674 3.5122C63.5674 2.89408 63.7893 2.38691 64.2331 1.99068C64.6768 1.5786 65.2553 1.37256 65.9685 1.37256C66.6818 1.37256 67.2603 1.5786 67.704 1.99068C68.1478 2.38691 68.3697 2.89408 68.3697 3.5122ZM72.7331 19.2266H68.644L72.852 12.7602L68.9293 6.48389H73.161L75.5622 10.7156L77.9396 6.48389H81.8147L77.9396 12.9028L82.1 19.2266H77.9396L75.3007 14.8285L72.7331 19.2266ZM62.6644 18.8225V15.6368C62.4425 15.7794 62.181 15.8904 61.8798 15.9696C61.5787 16.033 61.2696 16.0647 60.9527 16.0647C60.3821 16.0647 59.9462 15.9142 59.6451 15.613C59.344 15.296 59.1934 14.8047 59.1934 14.139V9.40968H62.7595V6.24777H59.1934V2.49151H55.5322V6.24777H53.0598V9.40968H55.5322V14.9711C55.5322 15.9221 55.7145 16.7383 56.079 17.4198C56.4436 18.0855 56.9507 18.5927 57.6006 18.9413C58.2662 19.29 59.0508 19.4644 59.9542 19.4644C60.4772 19.4644 60.9527 19.4168 61.3806 19.3217C61.8085 19.2266 62.2364 19.0602 62.6644 18.8225ZM41.8448 19.2266V13.1881C41.8448 12.253 42.0429 11.5556 42.4391 11.096C42.8353 10.6364 43.3821 10.3511 44.0795 10.2401C44.7927 10.1133 45.6169 10.0896 46.552 10.1688V6.36501C45.5376 6.36501 44.5708 6.5869 43.6516 7.03068C42.7323 7.45861 42.035 8.06087 41.5595 8.83748V6.48388H38.1836V19.2266H41.8448ZM28.0414 19.7722C26.8369 19.7722 25.7116 19.5503 24.6655 19.1065C23.6195 18.6469 22.7003 18.0129 21.9078 17.2046C21.1312 16.3805 20.521 15.4295 20.0772 14.3518C19.6334 13.274 19.4115 12.1091 19.4115 10.857C19.4115 9.60493 19.6334 8.44794 20.0772 7.38604C20.521 6.3083 21.1312 5.36527 21.9078 4.55697C22.7003 3.74866 23.6195 3.12261 24.6655 2.67884C25.7116 2.21921 26.8369 1.9894 28.0414 1.9894C29.5629 1.9894 30.9497 2.30638 32.2018 2.94035C33.4539 3.55847 34.4762 4.4381 35.2687 5.57924C36.077 6.70453 36.5683 8.00416 36.7426 9.47813H32.4871C32.3603 8.71737 32.0909 8.04378 31.6788 7.45736C31.2667 6.87094 30.7516 6.41132 30.1335 6.07849C29.5154 5.74565 28.826 5.57924 28.0652 5.57924C27.3837 5.57924 26.7656 5.70603 26.2108 5.95962C25.6561 6.2132 25.1806 6.57773 24.7844 7.05321C24.3882 7.51284 24.0791 8.06756 23.8572 8.71737C23.6512 9.36719 23.5482 10.0804 23.5482 10.857C23.5482 11.6495 23.6512 12.3706 23.8572 13.0204C24.0791 13.6702 24.3882 14.2329 24.7844 14.7084C25.1806 15.168 25.6561 15.5325 26.2108 15.802C26.7656 16.0555 27.3837 16.1823 28.0652 16.1823C28.826 16.1823 29.5154 16.0159 30.1335 15.6831C30.7516 15.3503 31.2667 14.8906 31.6788 14.3042C32.0909 13.7019 32.3603 13.0204 32.4871 12.2597H36.7426C36.5524 13.7495 36.0532 15.065 35.2449 16.2061C34.4524 17.3314 33.4301 18.211 32.1781 18.845C30.9418 19.4631 29.5629 19.7722 28.0414 19.7722ZM6.96378 9.39391L-0.100586 11.6493V19.2544H3.73076L6.06726 11.9361C6.15715 11.6545 6.55553 11.6545 6.64542 11.9361L8.98192 19.2544H16.7173V15.2406L9.18465 12.8357C8.9031 12.7458 8.9031 12.3474 9.18465 12.2575L16.7173 9.8526L16.7173 2.43651L12.4115 2.43651L10.0877 9.71495C9.99785 9.9965 9.59947 9.9965 9.50958 9.71495L7.18581 2.43651L-0.100586 2.43651V6.56032L6.96378 8.81575C7.24533 8.90564 7.24533 9.30402 6.96378 9.39391Z" fill="#AEE8FF"/>
</g>
<defs>
<clipPath id="clip0_2384_6894">
<rect width="82.8571" height="20" fill="white"/>
</clipPath>
</defs>
</svg>
