<svg width="107" height="28" viewBox="0 0 107 28" fill="none" xmlns="http://www.w3.org/2000/svg">
<path fill-rule="evenodd" clip-rule="evenodd" d="M15.0061 13.584L11.97 4.07422H2.87207V9.22438L12.1145 12.1752C12.3355 12.2458 12.3355 12.5585 12.1145 12.6291L2.87207 15.5799V25.0759H7.65639L10.7081 15.5176C10.7786 15.2966 11.0914 15.2966 11.162 15.5176L14.2136 25.0759H23.8737V20.0626L14.0493 16.926C13.8283 16.8554 13.8283 16.5426 14.0493 16.4721L23.8737 13.3354V4.07422H18.4962L15.4601 13.584C15.3895 13.805 15.0767 13.805 15.0061 13.584Z" fill="#AEE8FF"/>
<ellipse cx="64.7828" cy="5.44867" rx="2.73101" ry="2.57758" fill="#AEE8FF"/>
<ellipse cx="83.5669" cy="5.44867" rx="2.73101" ry="2.57758" fill="#AEE8FF"/>
<path d="M49.3611 12.3232H48.7078C47.3888 12.3232 46.0697 12.3232 44.7506 12.3232C44.2391 12.3232 44.2432 12.3232 44.1223 11.8339C43.7387 10.2813 42.8866 9.06506 41.5036 8.24219C40.4278 7.60141 39.2449 7.43879 38.0231 7.58335C35.9465 7.82937 34.5635 9.00946 33.7517 10.8859C33.0887 12.4177 33.0401 14.0217 33.3042 15.6438C33.546 17.138 34.1562 18.4488 35.3474 19.4259C36.5539 20.4156 37.962 20.7867 39.4979 20.5587C42.0346 20.1821 43.4843 18.6114 44.1459 16.2165C44.1612 16.1609 44.1737 16.1039 44.189 16.0483C44.2071 15.9816 44.228 15.9162 44.2544 15.8259H49.3889C49.2805 16.3485 49.2054 16.8586 49.0692 17.3521C48.5633 19.1813 47.6487 20.777 46.2545 22.0794C44.6491 23.5792 42.7726 24.509 40.5807 24.826C39.2699 25.015 37.9661 25.0122 36.679 24.7759C35.271 24.516 33.956 23.9656 32.7787 23.1358C31.0955 21.9487 29.8376 20.41 29.0369 18.5113C28.442 17.1005 28.1765 15.6216 28.1682 14.0926C28.1557 12.0132 28.6491 10.0714 29.7236 8.2839C30.9982 6.16419 32.8163 4.69638 35.125 3.83459C37.0265 3.12571 38.9808 3.05342 40.9629 3.42038C43.7164 3.9305 45.9279 5.30796 47.5694 7.56945C48.5577 8.93023 49.1026 10.4787 49.3569 12.1327C49.3639 12.1772 49.3569 12.2217 49.3569 12.3246L49.3611 12.3232Z" fill="#AEE8FF"/>
<path d="M103.417 24.5321C101.773 24.5321 100.188 24.5377 98.6036 24.521C98.4827 24.521 98.3215 24.3834 98.2492 24.2666C97.2359 22.6154 96.2351 20.9571 95.2302 19.3003C95.201 19.253 95.1648 19.2099 95.112 19.1404C94.5102 20.1635 93.9208 21.167 93.3315 22.1706C92.9103 22.8864 92.4933 23.605 92.061 24.3139C92.0013 24.4126 91.8609 24.5224 91.7566 24.5238C90.1943 24.5377 88.6334 24.5335 87.0029 24.5335C87.1822 24.2486 87.3337 23.9984 87.4936 23.7551C88.9948 21.4547 90.4918 19.1529 92.0041 16.8609C92.1458 16.6468 92.1166 16.512 91.9929 16.316C90.4695 13.91 88.9531 11.4984 87.4352 9.08815C87.4171 9.06035 87.4032 9.02977 87.3699 8.96583C87.4713 8.95332 87.5548 8.93524 87.6381 8.93524C89.1546 8.93385 90.6697 8.93664 92.1861 8.92969C92.3807 8.92969 92.4933 8.97972 92.5948 9.16181C93.4413 10.6713 94.3003 12.1739 95.1565 13.6778C95.2357 13.8168 95.3177 13.953 95.4262 14.1379C95.7862 13.5124 96.1253 12.93 96.4589 12.3421C97.0677 11.269 97.6696 10.1918 98.2867 9.1229C98.3382 9.03533 98.4744 8.94358 98.5717 8.94358C100.041 8.93246 101.509 8.93524 103.043 8.93524C102.936 9.13123 102.857 9.28969 102.765 9.4412C101.347 11.7791 99.9325 14.1185 98.5036 16.4494C98.3562 16.6899 98.3465 16.8511 98.5077 17.093C100.096 19.4726 101.67 21.8606 103.248 24.2472C103.298 24.3223 103.339 24.4029 103.417 24.5349V24.5321Z" fill="#AEE8FF"/>
<path d="M71.2638 12.763H68.2295V8.93497H71.2541V4.38281H75.677V8.92664H80.0359V12.7477H75.7006C75.6923 12.8978 75.6811 13.009 75.6811 13.1202C75.6811 14.8298 75.677 16.5395 75.6839 18.2492C75.6839 18.548 75.7089 18.8497 75.759 19.1443C75.9216 20.0812 76.5943 20.6775 77.552 20.7108C77.9537 20.7247 78.3638 20.7053 78.7585 20.6358C79.1491 20.5663 79.5244 20.412 79.9358 20.2869V20.9054C79.9358 21.7144 79.8914 22.5261 79.9511 23.3309C79.9942 23.9064 79.8177 24.2136 79.2645 24.3873C77.2407 25.0225 75.2572 25.0962 73.3877 23.9411C72.2034 23.21 71.6169 22.0549 71.3931 20.7164C71.3013 20.1618 71.2721 19.5919 71.268 19.0276C71.2541 17.0872 71.2624 15.1454 71.2624 13.205V12.7643L71.2638 12.763Z" fill="#AEE8FF"/>
<path d="M51.0996 24.5155V8.96446H55.1528V11.8167C56.6998 9.67752 58.807 8.91025 61.2631 8.78516V13.3749C61.0379 13.3637 60.8127 13.354 60.589 13.3429C59.6382 13.2956 58.6944 13.3359 57.7687 13.5806C56.3996 13.9433 55.5573 15.0651 55.5336 16.6705C55.5003 18.9681 55.5169 21.2671 55.5128 23.5661C55.5128 23.8761 55.5128 24.1847 55.5128 24.5141H51.101L51.0996 24.5155Z" fill="#AEE8FF"/>
<path d="M62.5947 8.95312H66.9704V24.5083H62.5947V8.95312Z" fill="#AEE8FF"/>
<path d="M85.744 24.5194H81.3906V8.95312H85.744V24.5194Z" fill="#AEE8FF"/>
</svg>
