<svg width="100" height="24" viewBox="0 0 100 24" fill="none" xmlns="http://www.w3.org/2000/svg">
<g clip-path="url(#clip0_1684_22339)">
<path fill-rule="evenodd" clip-rule="evenodd" d="M62.7786 23.0724H58.3852V7.78109H62.7786V23.0724ZM63.4348 4.21503C63.4348 4.95677 63.1685 5.57489 62.636 6.06938C62.1034 6.54486 61.4092 6.78259 60.5534 6.78259C59.6975 6.78259 59.0033 6.54486 58.4708 6.06938C57.9383 5.57489 57.672 4.95677 57.672 4.21503C57.672 3.47329 57.9383 2.86468 58.4708 2.3892C59.0033 1.89471 59.6975 1.64746 60.5534 1.64746C61.4092 1.64746 62.1034 1.89471 62.636 2.3892C63.1685 2.86468 63.4348 3.47329 63.4348 4.21503ZM82.1884 23.0724H77.795V7.78109H82.1884V23.0724ZM82.8445 4.21503C82.8445 4.95677 82.5783 5.57489 82.0457 6.06938C81.5132 6.54486 80.819 6.78259 79.9631 6.78259C79.1073 6.78259 78.4131 6.54486 77.8806 6.06938C77.348 5.57489 77.0818 4.95677 77.0818 4.21503C77.0818 3.47329 77.348 2.86468 77.8806 2.3892C78.4131 1.89471 79.1073 1.64746 79.9631 1.64746C80.819 1.64746 81.5132 1.89471 82.0457 2.3892C82.5783 2.86468 82.8445 3.47329 82.8445 4.21503ZM88.0806 23.0723H83.1737L88.2233 15.3126L83.516 7.78106H88.5941L91.4755 12.8591L94.3284 7.78106H98.9785L94.3284 15.4838L99.3208 23.0723H94.3284L91.1617 17.7946L88.0806 23.0723ZM75.9981 22.5874V18.7645C75.7319 18.9357 75.418 19.0688 75.0567 19.1639C74.6953 19.24 74.3244 19.2781 73.9441 19.2781C73.2594 19.2781 72.7364 19.0974 72.375 18.736C72.0136 18.3556 71.833 17.766 71.833 16.9672V11.292H76.1122V7.49771H71.833V2.99021H67.4396V7.49771H64.4726V11.292H67.4396V17.9657C67.4396 19.1069 67.6583 20.0864 68.0957 20.9042C68.5332 21.703 69.1418 22.3116 69.9215 22.73C70.7203 23.1484 71.6618 23.3576 72.7459 23.3576C73.3735 23.3576 73.9441 23.3006 74.4576 23.1865C74.9711 23.0723 75.4846 22.8726 75.9981 22.5874ZM51.0146 23.0723V15.8261C51.0146 14.704 51.2523 13.8671 51.7278 13.3156C52.2033 12.764 52.8594 12.4217 53.6963 12.2886C54.5521 12.1364 55.5411 12.1079 56.6632 12.203V7.63841C55.446 7.63841 54.2859 7.90467 53.1828 8.43721C52.0797 8.95072 51.2428 9.67344 50.6722 10.6054V7.78105H46.6212V23.0723H51.0146ZM34.4506 23.727C33.0051 23.727 31.6548 23.4607 30.3995 22.9282C29.1443 22.3766 28.0412 21.6159 27.0902 20.6459C26.1583 19.6569 25.4261 18.5158 24.8935 17.2225C24.361 15.9292 24.0947 14.5313 24.0947 13.0288C24.0947 11.5263 24.361 10.1379 24.8935 8.86364C25.4261 7.57035 26.1583 6.43872 27.0902 5.46875C28.0412 4.49878 29.1443 3.74753 30.3995 3.215C31.6548 2.66344 33.0051 2.38767 34.4506 2.38767C36.2764 2.38767 37.9406 2.76805 39.4431 3.52881C40.9456 4.27055 42.1723 5.32611 43.1233 6.69548C44.0932 8.04583 44.6828 9.60538 44.892 11.3742H39.7854C39.6333 10.4612 39.3099 9.65293 38.8155 8.94923C38.321 8.24552 37.7028 7.69397 36.9611 7.29457C36.2194 6.89518 35.392 6.69548 34.4791 6.69548C33.6613 6.69548 32.9196 6.84763 32.2539 7.15193C31.5882 7.45624 31.0177 7.89367 30.5422 8.46424C30.0667 9.01579 29.6958 9.68146 29.4296 10.4612C29.1823 11.241 29.0587 12.0969 29.0587 13.0288C29.0587 13.9798 29.1823 14.8451 29.4296 15.6249C29.6958 16.4047 30.0667 17.0799 30.5422 17.6504C31.0177 18.202 31.5882 18.6394 32.2539 18.9627C32.9196 19.267 33.6613 19.4192 34.4791 19.4192C35.392 19.4192 36.2194 19.2195 36.9611 18.8201C37.7028 18.4207 38.321 17.8691 38.8155 17.1654C39.3099 16.4427 39.6333 15.6249 39.7854 14.712H44.892C44.6638 16.4998 44.0647 18.0784 43.0947 19.4477C42.1438 20.7981 40.9171 21.8536 39.4146 22.6144C37.9311 23.3561 36.2764 23.727 34.4506 23.727ZM9.15742 11.2731L0.680176 13.9796V23.1056H5.27779L8.0816 14.3237C8.18946 13.9858 8.66752 13.9858 8.77538 14.3237L11.5792 23.1056H20.8616V18.2891L11.8225 15.4032C11.4846 15.2954 11.4846 14.8173 11.8225 14.7094L20.8616 11.8235L20.8616 2.9242L15.6947 2.9242L12.9062 11.6583C12.7983 11.9962 12.3202 11.9962 12.2124 11.6583L9.42385 2.9242L0.680176 2.9242V7.87278L9.15742 10.5793C9.49528 10.6872 9.49528 11.1652 9.15742 11.2731Z" fill="#AEE8FF"/>
</g>
<defs>
<clipPath id="clip0_1684_22339">
<rect width="99.4286" height="24" fill="white"/>
</clipPath>
</defs>
</svg>
