<svg width="84" height="18" viewBox="0 0 84 18" fill="none" xmlns="http://www.w3.org/2000/svg">
<path fill-rule="evenodd" clip-rule="evenodd" d="M10.2752 7.76871L7.79491 0H0V4.41205L7.54473 6.82084C7.8526 6.91914 7.8526 7.35477 7.54473 7.45307L0 9.86187V18H4.09542L6.5896 10.1878C6.68789 9.87997 7.12353 9.87997 7.22182 10.1878L9.716 18H18V13.7025L9.96386 11.1368C9.65598 11.0385 9.65598 10.6028 9.96386 10.5045L18 7.93886V0H13.3877L10.9074 7.76871C10.8091 8.07659 10.3735 8.07659 10.2752 7.76871Z" fill="#AEE8FF"/>
<ellipse cx="52.1682" cy="2.10052" rx="2.25022" ry="2.10052" fill="#AEE8FF"/>
<ellipse cx="67.6487" cy="2.10052" rx="2.25022" ry="2.10052" fill="#AEE8FF"/>
<path d="M39.4621 7.7009H38.9238C37.8369 7.7009 36.7501 7.7009 35.6632 7.7009C35.2418 7.7009 35.2452 7.7009 35.1456 7.30219C34.8295 6.03694 34.1274 5.04581 32.9879 4.37524C32.1014 3.85306 31.1268 3.72053 30.1201 3.83833C28.4091 4.03882 27.2696 5.0005 26.6007 6.52967C26.0544 7.77793 26.0144 9.08508 26.232 10.407C26.4312 11.6246 26.934 12.6928 27.9155 13.4891C28.9096 14.2956 30.0697 14.598 31.3353 14.4123C33.4254 14.1053 34.6199 12.8253 35.165 10.8736C35.1776 10.8283 35.1879 10.7819 35.2005 10.7366C35.2154 10.6822 35.2326 10.629 35.2544 10.5553H39.485C39.3957 10.9813 39.3338 11.397 39.2216 11.7991C38.8047 13.2897 38.0511 14.5901 36.9024 15.6515C35.5796 16.8737 34.0335 17.6314 32.2274 17.8897C31.1474 18.0437 30.0732 18.0415 29.0127 17.8489C27.8525 17.6371 26.7691 17.1885 25.799 16.5123C24.4121 15.545 23.3757 14.2911 22.716 12.7438C22.2258 11.5941 22.0071 10.3888 22.0002 9.14285C21.9899 7.44831 22.3965 5.8659 23.2817 4.40923C24.332 2.68183 25.83 1.48568 27.7323 0.783395C29.299 0.205709 30.9092 0.146803 32.5424 0.445841C34.8112 0.861548 36.6333 1.98408 37.9858 3.82701C38.8001 4.93594 39.2491 6.19779 39.4586 7.54572C39.4644 7.58197 39.4586 7.61822 39.4586 7.70204L39.4621 7.7009Z" fill="#AEE8FF"/>
<path d="M84.001 17.6491C82.6462 17.6491 81.3406 17.6536 80.035 17.64C79.9353 17.64 79.8025 17.5279 79.7429 17.4327C78.908 16.0871 78.0834 14.7357 77.2554 13.3855C77.2313 13.347 77.2016 13.3119 77.158 13.2553C76.6621 14.089 76.1766 14.9068 75.691 15.7246C75.3439 16.3079 75.0004 16.8936 74.6442 17.4712C74.5949 17.5517 74.4793 17.6412 74.3934 17.6423C73.1061 17.6536 71.82 17.6502 70.4766 17.6502C70.6243 17.418 70.7491 17.2141 70.8808 17.0159C72.1177 15.1412 73.3512 13.2655 74.5972 11.3976C74.714 11.2232 74.69 11.1133 74.5881 10.9536C73.3329 8.99286 72.0834 7.02759 70.8327 5.06346C70.8179 5.0408 70.8064 5.01588 70.7789 4.96378C70.8625 4.95358 70.9312 4.93885 71 4.93885C72.2494 4.93772 73.4978 4.93999 74.7473 4.93433C74.9076 4.93433 75.0004 4.9751 75.084 5.12349C75.7814 6.35362 76.4892 7.57809 77.1947 8.80369C77.26 8.91696 77.3275 9.02797 77.4169 9.17862C77.7135 8.66889 77.9929 8.19429 78.2678 7.71515C78.7694 6.84069 79.2653 5.96284 79.7738 5.09178C79.8162 5.02041 79.9285 4.94565 80.0086 4.94565C81.2192 4.93659 82.4286 4.93885 83.6929 4.93885C83.6048 5.09857 83.5395 5.2277 83.4639 5.35117C82.2957 7.2564 81.1298 9.16276 79.9525 11.0623C79.8311 11.2583 79.8231 11.3897 79.9559 11.5868C81.265 13.526 82.5614 15.472 83.8613 17.4169C83.9025 17.478 83.9369 17.5437 84.001 17.6514V17.6491Z" fill="#AEE8FF"/>
<path d="M57.5118 8.0584H55.0117V4.9389H57.5038V1.22925H61.1481V4.9321H64.7396V8.04594H61.1675C61.1607 8.16828 61.1515 8.25889 61.1515 8.34951C61.1515 9.74276 61.1481 11.136 61.1538 12.5292C61.1538 12.7728 61.1744 13.0186 61.2156 13.2587C61.3496 14.0222 61.9039 14.5081 62.693 14.5353C63.024 14.5466 63.3619 14.5308 63.6871 14.4741C64.0089 14.4175 64.3182 14.2918 64.6572 14.1898V14.6939C64.6572 15.3531 64.6205 16.0146 64.6698 16.6705C64.7053 17.1394 64.5598 17.3897 64.104 17.5313C62.4365 18.049 60.8022 18.109 59.2618 17.1677C58.286 16.5719 57.8027 15.6306 57.6183 14.5398C57.5428 14.0879 57.5187 13.6234 57.5153 13.1636C57.5038 11.5823 57.5107 9.99988 57.5107 8.41861V8.05954L57.5118 8.0584Z" fill="#AEE8FF"/>
<path d="M40.8945 17.6361V4.96326H44.2341V7.2876C45.5088 5.54434 47.245 4.91908 49.2687 4.81714V8.55738C49.0832 8.54831 48.8977 8.54038 48.7133 8.53132C47.9299 8.49281 47.1523 8.52566 46.3895 8.72502C45.2614 9.02066 44.5674 9.93476 44.5479 11.243C44.5204 13.1154 44.5342 14.989 44.5308 16.8625C44.5308 17.1151 44.5308 17.3665 44.5308 17.635H40.8957L40.8945 17.6361Z" fill="#AEE8FF"/>
<path d="M50.3672 4.95386H53.9725V17.6301H50.3672V4.95386Z" fill="#AEE8FF"/>
<path d="M69.4385 17.6382H65.8516V4.95288H69.4385V17.6382Z" fill="#AEE8FF"/>
</svg>
