<svg width="20" height="21" viewBox="0 0 20 21" fill="none">
<path d="M4.375 5.08325C4.39453 4.55591 4.58008 4.11646 4.93164 3.76489C5.2832 3.41333 5.72266 3.22778 6.25 3.20825H10.9375V6.95825C10.9375 7.23169 11.0254 7.4563 11.2012 7.63208C11.377 7.80786 11.6016 7.89575 11.875 7.89575H15.625V16.3333C15.6055 16.8606 15.4199 17.3 15.0684 17.6516C14.7168 18.0032 14.2773 18.1887 13.75 18.2083H6.25C5.72266 18.1887 5.2832 18.0032 4.93164 17.6516C4.58008 17.3 4.39453 16.8606 4.375 16.3333V5.08325Z" fill="#62626D"/>
<path d="M11.875 6.95825H15.625L11.875 3.20825V6.95825Z" fill="#9E9EA4"/>
</svg>