<svg width="24" height="24" viewBox="0 0 24 24" fill="none" xmlns="http://www.w3.org/2000/svg">
<path d="M5.25 5.25C5.27344 4.61719 5.49609 4.08984 5.91797 3.66797C6.33984 3.24609 6.86719 3.02344 7.5 3H13.125V7.5C13.125 7.82812 13.2305 8.09766 13.4414 8.30859C13.6523 8.51953 13.9219 8.625 14.25 8.625H18.75V18.75C18.7266 19.3828 18.5039 19.9102 18.082 20.332C17.6602 20.7539 17.1328 20.9766 16.5 21H7.5C6.86719 20.9766 6.33984 20.7539 5.91797 20.332C5.49609 19.9102 5.27344 19.3828 5.25 18.75V5.25Z" fill="#C3EDFE"/>
<path d="M14.25 7.5H18.75L14.25 3V7.5Z" fill="#A2D6EB"/>
<circle cx="12.1648" cy="12.9148" r="3.16479" fill="#87C9E3"/>
<path fill-rule="evenodd" clip-rule="evenodd" d="M12.4582 11.5303C12.4582 11.3686 12.3271 11.2375 12.1655 11.2375C12.0038 11.2375 11.8727 11.3686 11.8727 11.5303V12.6218H10.78C10.6184 12.6218 10.4873 12.7529 10.4873 12.9146C10.4873 13.0762 10.6184 13.2073 10.78 13.2073H11.8727V14.2995C11.8727 14.4612 12.0038 14.5922 12.1655 14.5922C12.3271 14.5922 12.4582 14.4612 12.4582 14.2995V13.2073H13.5492C13.7109 13.2073 13.842 13.0762 13.842 12.9146C13.842 12.7529 13.7109 12.6218 13.5492 12.6218H12.4582V11.5303Z" fill="#4299BC"/>
</svg>
