<svg width="24" height="24" viewBox="0 0 24 24" fill="none" xmlns="http://www.w3.org/2000/svg">
<path d="M12.0032 4.04822C12.2352 3.81621 12.5004 3.7002 12.7987 3.7002C13.097 3.7002 13.3621 3.81621 13.5942 4.04822L19.9581 10.4122C20.1901 10.6442 20.3062 10.9094 20.3062 11.2077C20.3062 11.506 20.1901 11.7712 19.9581 12.0032C19.7261 12.2352 19.4609 12.3512 19.1626 12.3512C18.8643 12.3512 18.5992 12.2352 18.3671 12.0032L17.6462 11.2823L14.2405 15.2349C14.6714 16.6933 14.5388 18.1351 13.8428 19.5604L13.793 19.6598C13.6273 19.9913 13.3539 20.1984 12.9727 20.2813C12.5915 20.331 12.2683 20.2233 12.0032 19.9581L4.04822 12.0032C3.78306 11.738 3.67534 11.4148 3.72505 11.0337C3.80792 10.6525 4.01508 10.379 4.34654 10.2133L4.44597 10.1636C5.87123 9.46754 7.31307 9.33495 8.77148 9.76585L12.749 6.38499L12.0032 5.63921C11.7712 5.4072 11.6551 5.14203 11.6551 4.84372C11.6551 4.54541 11.7712 4.28024 12.0032 4.04822ZM6.43471 15.9807L8.0257 17.5716L5.63921 19.9581C5.4072 20.1901 5.14203 20.3062 4.84372 20.3062C4.54541 20.3062 4.28024 20.1901 4.04822 19.9581C3.81621 19.7261 3.7002 19.4609 3.7002 19.1626C3.7002 18.8643 3.81621 18.5992 4.04822 18.3671L6.43471 15.9807Z" fill="white"/>
</svg>
