<svg width="24" height="24" viewBox="0 0 24 24" fill="none" xmlns="http://www.w3.org/2000/svg">
<path d="M13.125 5.81494V10.8774H18.1875C18.5156 10.8774 18.7852 10.9829 18.9961 11.1938C19.207 11.4048 19.3125 11.6743 19.3125 12.0024C19.3125 12.3306 19.207 12.6001 18.9961 12.811C18.7852 13.022 18.5156 13.1274 18.1875 13.1274H13.125V18.1899C13.125 18.5181 13.0195 18.7876 12.8086 18.9985C12.5977 19.2095 12.3281 19.3149 12 19.3149C11.6719 19.3149 11.4023 19.2095 11.1914 18.9985C10.9805 18.7876 10.875 18.5181 10.875 18.1899V13.1274H5.8125C5.48438 13.1274 5.21484 13.022 5.00391 12.811C4.79297 12.6001 4.6875 12.3306 4.6875 12.0024C4.6875 11.6743 4.79297 11.4048 5.00391 11.1938C5.21484 10.9829 5.48438 10.8774 5.8125 10.8774H10.875V5.81494C10.875 5.48682 10.9805 5.21729 11.1914 5.00635C11.4023 4.79541 11.6719 4.68994 12 4.68994C12.3281 4.68994 12.5977 4.79541 12.8086 5.00635C13.0195 5.21729 13.125 5.48682 13.125 5.81494Z" fill="white"/>
</svg>
