<svg width="18" height="18" viewBox="0 0 18 18" fill="none" xmlns="http://www.w3.org/2000/svg">
<path fill-rule="evenodd" clip-rule="evenodd" d="M3.47426 8.27499H13.1702L9.40469 4.50949C9.08071 4.18551 9.08071 3.66051 9.40469 3.33722C9.72867 3.01324 10.253 3.01324 10.577 3.33722L15.7579 8.51814C15.76 8.51953 15.7606 8.52229 15.7627 8.52436C15.8366 8.59966 15.896 8.68877 15.9368 8.78686C16.0211 8.98995 16.0211 9.21791 15.9368 9.42101C15.896 9.51979 15.8366 9.60821 15.7627 9.68351C15.7606 9.68558 15.76 9.68834 15.7579 9.69041L10.577 14.8713C10.4153 15.033 10.2032 15.1138 9.99117 15.1138C9.7784 15.1138 9.56633 15.033 9.40469 14.8713C9.08071 14.5474 9.08071 14.0224 9.40469 13.6991L13.1702 9.93288H3.47426C3.01627 9.93288 2.64531 9.56193 2.64531 9.10393C2.64531 8.64663 3.01627 8.27499 3.47426 8.27499Z" fill="#BAC6D4"/>
</svg>
