<svg width="24" height="24" viewBox="0 0 24 24" fill="none" xmlns="http://www.w3.org/2000/svg">
<g id="ico_sad">
<path id="Icon" d="M12 23C9.99479 22.9714 8.16146 22.4844 6.5 21.5391C4.83854 20.5651 3.49219 19.2188 2.46094 17.5C1.48698 15.7526 1 13.9193 1 12C1 10.0807 1.48698 8.2474 2.46094 6.5C3.49219 4.78125 4.83854 3.4349 6.5 2.46094C8.16146 1.51562 9.99479 1.02865 12 1C14.0052 1.02865 15.8385 1.51562 17.5 2.46094C19.1615 3.4349 20.5078 4.78125 21.5391 6.5C22.513 8.2474 23 10.0807 23 12C23 13.9193 22.513 15.7526 21.5391 17.5C20.5078 19.2188 19.1615 20.5651 17.5 21.5391C15.8385 22.4844 14.0052 22.9714 12 23ZM17.4141 17.8867C17.1562 17.2852 16.569 16.6263 15.6523 15.9102C14.7643 15.194 13.5469 14.8073 12 14.75C10.4531 14.8073 9.23568 15.194 8.34766 15.9102C7.43099 16.6263 6.84375 17.2852 6.58594 17.8867L7.78906 18.4883C7.98958 18.0586 8.43359 17.5716 9.12109 17.0273C9.83724 16.4831 10.7969 16.1823 12 16.125C13.2031 16.1823 14.1628 16.4831 14.8789 17.0273C15.5664 17.5716 16.0104 18.0586 16.2109 18.4883L17.4141 17.8867ZM7.1875 9.9375C7.21615 10.3385 7.35938 10.668 7.61719 10.9258C7.875 11.1836 8.1901 11.3125 8.5625 11.3125C8.96354 11.3125 9.29297 11.1836 9.55078 10.9258C9.80859 10.668 9.9375 10.3385 9.9375 9.9375C9.9375 9.53646 9.80859 9.20703 9.55078 8.94922C9.29297 8.69141 8.96354 8.5625 8.5625 8.5625C8.1901 8.5625 7.875 8.69141 7.61719 8.94922C7.35938 9.20703 7.21615 9.53646 7.1875 9.9375ZM15.4375 8.5625C15.0651 8.5625 14.75 8.69141 14.4922 8.94922C14.2344 9.20703 14.0911 9.53646 14.0625 9.9375C14.0911 10.3385 14.2344 10.668 14.4922 10.9258C14.75 11.1836 15.0651 11.3125 15.4375 11.3125C15.8385 11.3125 16.168 11.1836 16.4258 10.9258C16.6836 10.668 16.8125 10.3385 16.8125 9.9375C16.8125 9.53646 16.6836 9.20703 16.4258 8.94922C16.168 8.69141 15.8385 8.5625 15.4375 8.5625Z" fill="white"/>
</g>
</svg>
