<svg width="15" height="16" viewBox="0 0 15 16" fill="none" xmlns="http://www.w3.org/2000/svg">
<path d="M8.49577 13.7883C8.07103 14.921 7.85865 15.4873 7.48438 15.4873C7.1101 15.4873 6.89772 14.921 6.47298 13.7883L5.39053 10.9018C5.28209 10.6126 5.22787 10.468 5.12214 10.3623C5.01642 10.2566 4.87183 10.2024 4.58265 10.0939L1.69614 9.01147C0.563492 8.58672 -0.00283195 8.37435 -0.00283233 8.00007C-0.00283208 7.62579 0.563491 7.41342 1.69614 6.98867L4.58265 5.90623C4.87183 5.79778 5.01642 5.74356 5.12214 5.63784C5.22787 5.53212 5.28209 5.38753 5.39053 5.09835L6.47298 2.21184C6.89772 1.07919 7.1101 0.512864 7.48438 0.512863C7.85865 0.512864 8.07103 1.07919 8.49577 2.21183L9.57822 5.09835C9.68666 5.38753 9.74088 5.53212 9.84661 5.63784C9.95233 5.74356 10.0969 5.79778 10.3861 5.90623L13.2726 6.98867C14.4053 7.41342 14.9716 7.62579 14.9716 8.00007C14.9716 8.37435 14.4053 8.58672 13.2726 9.01147L10.3861 10.0939C10.0969 10.2024 9.95233 10.2566 9.84661 10.3623C9.74088 10.468 9.68666 10.6126 9.57822 10.9018L8.49577 13.7883Z" fill="#D7ADFE"/>
</svg>
