<svg width="24" height="24" viewBox="0 0 24 24" fill="none" xmlns="http://www.w3.org/2000/svg">
<path d="M12 21C10.3594 20.9766 8.85938 20.5781 7.5 19.8047C6.14062 19.0078 5.03906 17.9062 4.19531 16.5C3.39844 15.0703 3 13.5703 3 12C3 10.4297 3.39844 8.92969 4.19531 7.5C5.03906 6.09375 6.14062 4.99219 7.5 4.19531C8.85938 3.42188 10.3594 3.02344 12 3C13.6406 3.02344 15.1406 3.42188 16.5 4.19531C17.8594 4.99219 18.9609 6.09375 19.8047 7.5C20.6016 8.92969 21 10.4297 21 12C21 13.5703 20.6016 15.0703 19.8047 16.5C18.9609 17.9062 17.8594 19.0078 16.5 19.8047C15.1406 20.5781 13.6406 20.9766 12 21ZM8.76562 14.4609C8.50781 14.2031 8.25 14.1797 7.99219 14.3906C7.73438 14.6484 7.71094 14.918 7.92188 15.1992C8.32031 15.668 8.85938 16.0898 9.53906 16.4648C10.2188 16.8398 11.0391 17.0391 12 17.0625C12.9609 17.0391 13.7812 16.8398 14.4609 16.4648C15.1406 16.0898 15.6797 15.668 16.0781 15.1992C16.2891 14.918 16.2773 14.6484 16.043 14.3906C15.7617 14.1797 15.4922 14.2031 15.2344 14.4609C14.9062 14.8359 14.4844 15.1758 13.9688 15.4805C13.4297 15.7617 12.7734 15.9141 12 15.9375C11.2266 15.9141 10.5703 15.7617 10.0312 15.4805C9.51562 15.1758 9.09375 14.8359 8.76562 14.4609ZM8.0625 10.3125C8.08594 10.6406 8.20312 10.9102 8.41406 11.1211C8.625 11.332 8.88281 11.4375 9.1875 11.4375C9.51562 11.4375 9.78516 11.332 9.99609 11.1211C10.207 10.9102 10.3125 10.6406 10.3125 10.3125C10.3125 9.98438 10.207 9.71484 9.99609 9.50391C9.78516 9.29297 9.51562 9.1875 9.1875 9.1875C8.88281 9.1875 8.625 9.29297 8.41406 9.50391C8.20312 9.71484 8.08594 9.98438 8.0625 10.3125ZM14.8125 9.1875C14.5078 9.1875 14.25 9.29297 14.0391 9.50391C13.8281 9.71484 13.7109 9.98438 13.6875 10.3125C13.7109 10.6406 13.8281 10.9102 14.0391 11.1211C14.25 11.332 14.5078 11.4375 14.8125 11.4375C15.1406 11.4375 15.4102 11.332 15.6211 11.1211C15.832 10.9102 15.9375 10.6406 15.9375 10.3125C15.9375 9.98438 15.832 9.71484 15.6211 9.50391C15.4102 9.29297 15.1406 9.1875 14.8125 9.1875Z" fill="white"/>
</svg>
