<svg width="24" height="24" viewBox="0 0 24 24" fill="none" xmlns="http://www.w3.org/2000/svg">
<path d="M12.7734 4.61719L14.8477 9.15234L19.3828 11.2266C19.6875 11.3906 19.8516 11.6484 19.875 12C19.8516 12.3516 19.6875 12.6094 19.3828 12.7734L14.8477 14.8477L12.7734 19.3828C12.6094 19.6875 12.3516 19.8516 12 19.875C11.6484 19.8516 11.3906 19.6875 11.2266 19.3828L9.15234 14.8477L4.61719 12.7734C4.3125 12.6094 4.14844 12.3516 4.125 12C4.14844 11.6484 4.3125 11.3906 4.61719 11.2266L9.15234 9.15234L11.2266 4.61719C11.3906 4.3125 11.6484 4.14844 12 4.125C12.3516 4.14844 12.6094 4.3125 12.7734 4.61719Z" fill="white"/>
</svg>
