<svg width="24" height="24" viewBox="0 0 24 24" fill="none" xmlns="http://www.w3.org/2000/svg">
<path d="M11.875 2V7.90625H9.25V2H11.875ZM5.3125 3.3125H7.9375V7.90625H5.3125V3.3125ZM13.1875 3.3125H15.8125V9.875H13.1875V3.3125ZM17.125 5.9375H19.75V11.1875H17.125V5.9375ZM4 12.418V9.21875H11.875V12.5H7.28125V13.8125H13.1875V11.1875H15.8125V12.5H19.75C19.75 13.5938 19.5176 14.5918 19.0527 15.4941C18.5879 16.3965 17.9453 17.1484 17.125 17.75V23H7.9375V18.4883C7.22656 18.1602 6.58398 17.709 6.00977 17.1348L5.92773 17.0527C4.66992 15.7676 4.02734 14.2227 4 12.418Z" fill="white"/>
</svg>
