<svg xmlns="http://www.w3.org/2000/svg" width="24" height="24" viewBox="0 0 24 24" fill="none">
  <path fill-rule="evenodd" clip-rule="evenodd" d="M4.9538 9.20281C4.44883 9.20281 3.96454 9.40341 3.60747 9.76048C3.2504 10.1175 3.0498 10.6018 3.0498 11.1068V19.0938C3.0498 20.1458 3.9018 20.9988 4.9538 20.9988H6.8838V9.20281H4.9538ZM20.4128 6.99581H15.8708V2.73481C15.871 2.35247 15.745 1.98075 15.5123 1.67736C15.2797 1.37397 14.9534 1.15588 14.584 1.05694C14.2147 0.957996 13.8231 0.983745 13.4699 1.13019C13.1167 1.27663 12.8218 1.53557 12.6308 1.86681L8.3948 9.20281H8.3838V20.9988H17.6178C18.4692 20.9988 19.296 20.7136 19.9663 20.1887C20.6366 19.6637 21.1117 18.9294 21.3158 18.1028L23.1858 10.5388C23.2899 10.118 23.2969 9.67894 23.2061 9.255C23.1154 8.83106 22.9294 8.43333 22.6622 8.09193C22.395 7.75053 22.0536 7.47442 21.6639 7.28451C21.2742 7.0946 20.8463 6.99587 20.4128 6.99581Z" fill="#BEFFAE"/>
</svg>