<svg width="24" height="24" viewBox="0 0 24 24" fill="none" xmlns="http://www.w3.org/2000/svg">
<path d="M14.0039 4.15762C14.4727 4.25137 14.8359 4.48574 15.0938 4.86074C15.3516 5.23574 15.4336 5.65762 15.3398 6.12637L15.2695 6.54824C15.082 7.48574 14.7422 8.36465 14.25 9.18496H19.3125C19.7812 9.2084 20.1797 9.37246 20.5078 9.67715C20.8125 10.0053 20.9766 10.4037 21 10.8725C20.9766 11.5521 20.6719 12.0561 20.0859 12.3842C20.4844 12.7123 20.6953 13.1459 20.7188 13.685C20.7188 14.1068 20.5898 14.4701 20.332 14.7748C20.0742 15.0795 19.7461 15.267 19.3477 15.3373C19.5117 15.5951 19.5938 15.8881 19.5938 16.2162C19.5469 17.0131 19.1602 17.5521 18.4336 17.8334C18.457 17.9506 18.4688 18.0678 18.4688 18.185C18.4453 18.6537 18.2812 19.0521 17.9766 19.3803C17.6484 19.685 17.25 19.849 16.7812 19.8725H13.3711C12.668 19.8725 12.0352 19.685 11.4727 19.31L10.1367 18.3959C9.15234 17.7162 8.64844 16.7787 8.625 15.5834V11.6811C8.64844 10.6029 9.07031 9.72402 9.89062 9.04434L10.1367 8.8334C11.0977 8.05996 11.707 7.07559 11.9648 5.88027L12.0352 5.49355C12.1289 5.0248 12.3633 4.66152 12.7383 4.40371C13.1133 4.1459 13.5352 4.06387 14.0039 4.15762ZM4.125 9.74746H6.375C6.70312 9.74746 6.97266 9.85293 7.18359 10.0639C7.39453 10.2748 7.5 10.5443 7.5 10.8725V18.7475C7.5 19.0756 7.39453 19.3451 7.18359 19.5561C6.97266 19.767 6.70312 19.8725 6.375 19.8725H4.125C3.79688 19.8725 3.52734 19.767 3.31641 19.5561C3.10547 19.3451 3 19.0756 3 18.7475V10.8725C3 10.5443 3.10547 10.2748 3.31641 10.0639C3.52734 9.85293 3.79688 9.74746 4.125 9.74746Z" fill="white"/>
</svg>
