<svg width="24" height="25" viewBox="0 0 24 25" fill="none" xmlns="http://www.w3.org/2000/svg">
<path fill-rule="evenodd" clip-rule="evenodd" d="M10.8005 20.6325L10.8005 6.5965L5.34953 12.0475C4.88053 12.5165 4.12053 12.5165 3.65253 12.0475C3.18353 11.5785 3.18353 10.8195 3.65253 10.3505L11.1525 2.8505C11.1545 2.8475 11.1585 2.8465 11.1615 2.8435C11.2705 2.7365 11.3995 2.6505 11.5415 2.5915C11.8355 2.4695 12.1655 2.4695 12.4595 2.5915C12.6025 2.6505 12.7305 2.7365 12.8395 2.8435C12.8425 2.8465 12.8465 2.8475 12.8495 2.8505L20.3495 10.3505C20.5835 10.5845 20.7005 10.8915 20.7005 11.1985C20.7005 11.5065 20.5835 11.8135 20.3495 12.0475C19.8805 12.5165 19.1205 12.5165 18.6525 12.0475L13.2005 6.5965L13.2005 20.6325C13.2005 21.2955 12.6635 21.8325 12.0005 21.8325C11.3385 21.8325 10.8005 21.2955 10.8005 20.6325Z" fill="#BAC6D4"/>
</svg>
