<svg width="24" height="24" viewBox="0 0 24 24" fill="none" xmlns="http://www.w3.org/2000/svg">
<path d="M17.0273 16.5C16.6289 15.8203 16.0898 15.2812 15.4102 14.8828C14.7305 14.4609 13.9688 14.25 13.125 14.25H10.875C10.0312 14.25 9.26953 14.4609 8.58984 14.8828C7.91016 15.2812 7.37109 15.8203 6.97266 16.5C7.60547 17.2031 8.34375 17.7539 9.1875 18.1523C10.0547 18.5508 10.9922 18.75 12 18.75C13.0078 18.75 13.9453 18.5508 14.8125 18.1523C15.6562 17.7539 16.3945 17.2031 17.0273 16.5ZM3 12C3.02344 10.3594 3.42188 8.85938 4.19531 7.5C4.99219 6.14062 6.09375 5.03906 7.5 4.19531C8.92969 3.39844 10.4297 3 12 3C13.5703 3 15.0703 3.39844 16.5 4.19531C17.9062 5.03906 19.0078 6.14062 19.8047 7.5C20.5781 8.85938 20.9766 10.3594 21 12C20.9766 13.6406 20.5781 15.1406 19.8047 16.5C19.0078 17.8594 17.9062 18.9609 16.5 19.8047C15.0703 20.6016 13.5703 21 12 21C10.4297 21 8.92969 20.6016 7.5 19.8047C6.09375 18.9609 4.99219 17.8594 4.19531 16.5C3.42188 15.1406 3.02344 13.6406 3 12ZM12 12.5625C12.9609 12.5391 13.6875 12.1172 14.1797 11.2969C14.6484 10.4531 14.6484 9.60938 14.1797 8.76562C13.6875 7.94531 12.9609 7.52344 12 7.5C11.0391 7.52344 10.3125 7.94531 9.82031 8.76562C9.35156 9.60938 9.35156 10.4531 9.82031 11.2969C10.3125 12.1172 11.0391 12.5391 12 12.5625Z" fill="white"/>
</svg>
