<svg width="24" height="24" viewBox="0 0 24 24" fill="none" xmlns="http://www.w3.org/2000/svg">
<path d="M5.56339 5.29679C6.01249 4.84769 6.74063 4.84768 7.18973 5.29679L12.062 10.169L16.9135 5.31748C17.3336 4.8974 18.0147 4.8974 18.4348 5.31748C18.8549 5.73756 18.8549 6.41864 18.4348 6.83872L13.5832 11.6903L18.4327 16.5398C18.8818 16.9889 18.8818 17.717 18.4327 18.1661C17.9836 18.6152 17.2555 18.6152 16.8064 18.1661L11.9569 13.3166L7.08669 18.1868C6.66661 18.6069 5.98552 18.6069 5.56545 18.1868C5.14537 17.7667 5.14537 17.0857 5.56545 16.6656L10.4356 11.7954L5.56339 6.92313C5.11429 6.47403 5.11429 5.74589 5.56339 5.29679Z" fill="white"/>
</svg>
